<svg width="6" height="9" viewBox="0 0 6 9" fill="none" xmlns="http://www.w3.org/2000/svg">
<path d="M0.822826 5.00998C0.723168 4.91044 0.667116 4.77541 0.666992 4.63456V4.36539C0.668624 4.22485 0.724449 4.09036 0.822826 3.98998L4.46366 0.356227C4.53016 0.289179 4.62068 0.251465 4.71512 0.251465C4.80955 0.251465 4.90007 0.289179 4.96658 0.356227L5.46949 0.859143C5.53612 0.924426 5.57367 1.01378 5.57367 1.10706C5.57367 1.20034 5.53612 1.28969 5.46949 1.35498L2.31741 4.49998L5.46949 7.64498C5.53654 7.71148 5.57425 7.802 5.57425 7.89643C5.57425 7.99087 5.53654 8.08139 5.46949 8.14789L4.96658 8.64373C4.90007 8.71078 4.80955 8.74849 4.71512 8.74849C4.62068 8.74849 4.53016 8.71078 4.46366 8.64373L0.822826 5.00998Z" fill="#2D2D2A"/>
</svg>
