<svg width="6" height="9" viewBox="0 0 6 9" fill="none" xmlns="http://www.w3.org/2000/svg">
<path d="M5.17815 5.00998C5.27781 4.91044 5.33386 4.77541 5.33398 4.63456V4.36539C5.33235 4.22485 5.27653 4.09036 5.17815 3.98998L1.53732 0.356227C1.47082 0.289179 1.38029 0.251465 1.28586 0.251465C1.19143 0.251465 1.1009 0.289179 1.0344 0.356227L0.531484 0.859143C0.464856 0.924426 0.427309 1.01378 0.427309 1.10706C0.427309 1.20034 0.464856 1.28969 0.531484 1.35498L3.68357 4.49998L0.531484 7.64498C0.464436 7.71148 0.426723 7.802 0.426723 7.89643C0.426723 7.99087 0.464436 8.08139 0.531484 8.14789L1.0344 8.64373C1.1009 8.71078 1.19143 8.74849 1.28586 8.74849C1.38029 8.74849 1.47082 8.71078 1.53732 8.64373L5.17815 5.00998Z" fill="#2D2D2A"/>
</svg>
