<svg width="10" height="9" viewBox="0 0 10 9" fill="none" xmlns="http://www.w3.org/2000/svg">
<path d="M9.84417 5.00998C9.94382 4.91044 9.99988 4.77541 10 4.63456V4.36539C9.99837 4.22485 9.94254 4.09036 9.84417 3.98998L6.20333 0.356227C6.13683 0.289179 6.04631 0.251465 5.95188 0.251465C5.85744 0.251465 5.76692 0.289179 5.70042 0.356227L5.1975 0.859143C5.13087 0.924426 5.09332 1.01378 5.09332 1.10706C5.09332 1.20034 5.13087 1.28969 5.1975 1.35498L8.34958 4.49998L5.1975 7.64498C5.13045 7.71148 5.09274 7.802 5.09274 7.89643C5.09274 7.99087 5.13045 8.08139 5.1975 8.14789L5.70042 8.64373C5.76692 8.71078 5.85744 8.74849 5.95188 8.74849C6.04631 8.74849 6.13683 8.71078 6.20333 8.64373L9.84417 5.00998Z" fill="#2D2D2A"/>
<path d="M4.84417 5.00998C4.94382 4.91044 4.99988 4.77541 5 4.63456V4.36539C4.99837 4.22485 4.94254 4.09036 4.84417 3.98998L1.20333 0.356227C1.13683 0.289179 1.04631 0.251465 0.951875 0.251465C0.857441 0.251465 0.766917 0.289179 0.700417 0.356227L0.1975 0.859143C0.130871 0.924426 0.0933247 1.01378 0.0933247 1.10706C0.0933247 1.20034 0.130871 1.28969 0.1975 1.35498L3.34958 4.49998L0.1975 7.64498C0.130452 7.71148 0.0927382 7.802 0.0927382 7.89643C0.0927382 7.99087 0.130452 8.08139 0.1975 8.14789L0.700417 8.64373C0.766917 8.71078 0.857441 8.74849 0.951875 8.74849C1.04631 8.74849 1.13683 8.71078 1.20333 8.64373L4.84417 5.00998Z" fill="#2D2D2A"/>
</svg>
