<svg width="471" height="438" viewBox="0 0 471 438" fill="none" xmlns="http://www.w3.org/2000/svg">
<g style="mix-blend-mode:color-dodge" opacity="0.8">
<g style="mix-blend-mode:color-dodge" opacity="0.15">
<g style="mix-blend-mode:color-dodge" opacity="0.15">
<path d="M470.024 303H451.614V321.423H470.024V303Z" fill="#5C5C5C"/>
</g>
</g>
<g style="mix-blend-mode:color-dodge" opacity="0.36">
<g style="mix-blend-mode:color-dodge" opacity="0.36">
<path d="M445 303H426.59V321.423H445V303Z" fill="#5C5C5C"/>
</g>
</g>
<g style="mix-blend-mode:color-dodge" opacity="0.76">
<g style="mix-blend-mode:color-dodge" opacity="0.76">
<path d="M169.74 303H151.331V321.423H169.74V303Z" fill="#5C5C5C"/>
</g>
</g>
<g style="mix-blend-mode:color-dodge" opacity="0.54">
<g style="mix-blend-mode:color-dodge" opacity="0.54">
<path d="M144.716 303H126.307V321.423H144.716V303Z" fill="#5C5C5C"/>
</g>
</g>
<g style="mix-blend-mode:color-dodge" opacity="0.05">
<g style="mix-blend-mode:color-dodge" opacity="0.05">
<path d="M119.692 303H101.282V321.423H119.692V303Z" fill="#5C5C5C"/>
</g>
</g>
<g style="mix-blend-mode:color-dodge" opacity="0.92">
<g style="mix-blend-mode:color-dodge" opacity="0.92">
<path d="M94.6677 303H76.2583V321.423H94.6677V303Z" fill="#5C5C5C"/>
</g>
</g>
<g style="mix-blend-mode:color-dodge" opacity="0.03">
<g style="mix-blend-mode:color-dodge" opacity="0.03">
<path d="M44.6193 303H26.21V321.423H44.6193V303Z" fill="#5C5C5C"/>
</g>
</g>
<g style="mix-blend-mode:color-dodge" opacity="0.17">
<g style="mix-blend-mode:color-dodge" opacity="0.17">
<path d="M19.0236 303H0.614258V321.423H19.0236V303Z" fill="#5C5C5C"/>
</g>
</g>
<g style="mix-blend-mode:color-dodge" opacity="0.64">
<g style="mix-blend-mode:color-dodge" opacity="0.64">
<path d="M470.024 326.317H451.614V344.74H470.024V326.317Z" fill="#5C5C5C"/>
</g>
</g>
<g style="mix-blend-mode:color-dodge" opacity="0.19">
<g style="mix-blend-mode:color-dodge" opacity="0.19">
<path d="M445 326.317H426.59V344.74H445V326.317Z" fill="#5C5C5C"/>
</g>
</g>
<g style="mix-blend-mode:color-dodge" opacity="0.43">
<g style="mix-blend-mode:color-dodge" opacity="0.43">
<path d="M419.975 326.317H401.566V344.74H419.975V326.317Z" fill="#5C5C5C"/>
</g>
</g>
<g style="mix-blend-mode:color-dodge" opacity="0.59">
<g style="mix-blend-mode:color-dodge" opacity="0.59">
<path d="M194.764 326.317H176.354V344.74H194.764V326.317Z" fill="#5C5C5C"/>
</g>
</g>
<g style="mix-blend-mode:color-dodge" opacity="0.92">
<g style="mix-blend-mode:color-dodge" opacity="0.92">
<path d="M169.74 326.317H151.331V344.74H169.74V326.317Z" fill="#5C5C5C"/>
</g>
</g>
<g style="mix-blend-mode:color-dodge" opacity="0.42">
<g style="mix-blend-mode:color-dodge" opacity="0.42">
<path d="M144.716 326.317H126.307V344.74H144.716V326.317Z" fill="#5C5C5C"/>
</g>
</g>
<g style="mix-blend-mode:color-dodge" opacity="0.53">
<g style="mix-blend-mode:color-dodge" opacity="0.53">
<path d="M119.692 326.317H101.282V344.74H119.692V326.317Z" fill="#5C5C5C"/>
</g>
</g>
<g style="mix-blend-mode:color-dodge" opacity="0.63">
<g style="mix-blend-mode:color-dodge" opacity="0.63">
<path d="M94.6677 326.317H76.2583V344.74H94.6677V326.317Z" fill="#5C5C5C"/>
</g>
</g>
<g style="mix-blend-mode:color-dodge" opacity="0.04">
<g style="mix-blend-mode:color-dodge" opacity="0.04">
<path d="M69.6438 326.317H51.2344V344.74H69.6438V326.317Z" fill="#5C5C5C"/>
</g>
</g>
<g style="mix-blend-mode:color-dodge" opacity="0.18">
<g style="mix-blend-mode:color-dodge" opacity="0.18">
<path d="M470.024 349.63H451.614V368.052H470.024V349.63Z" fill="#5C5C5C"/>
</g>
</g>
<g style="mix-blend-mode:color-dodge" opacity="0.32">
<g style="mix-blend-mode:color-dodge" opacity="0.32">
<path d="M445 349.63H426.59V368.052H445V349.63Z" fill="#5C5C5C"/>
</g>
</g>
<g style="mix-blend-mode:color-dodge">
<path d="M419.975 349.629H401.566V368.052H419.975V349.629Z" fill="#5C5C5C"/>
</g>
<g style="mix-blend-mode:color-dodge" opacity="0.52">
<g style="mix-blend-mode:color-dodge" opacity="0.52">
<path d="M219.788 349.63H201.379V368.052H219.788V349.63Z" fill="#5C5C5C"/>
</g>
</g>
<g style="mix-blend-mode:color-dodge" opacity="0.81">
<g style="mix-blend-mode:color-dodge" opacity="0.81">
<path d="M194.764 349.63H176.354V368.052H194.764V349.63Z" fill="#5C5C5C"/>
</g>
</g>
<g style="mix-blend-mode:color-dodge" opacity="0.84">
<g style="mix-blend-mode:color-dodge" opacity="0.84">
<path d="M169.74 349.63H151.331V368.052H169.74V349.63Z" fill="#5C5C5C"/>
</g>
</g>
<g style="mix-blend-mode:color-dodge" opacity="0.95">
<g style="mix-blend-mode:color-dodge" opacity="0.95">
<path d="M144.716 349.63H126.307V368.052H144.716V349.63Z" fill="#5C5C5C"/>
</g>
</g>
<g style="mix-blend-mode:color-dodge" opacity="0.13">
<g style="mix-blend-mode:color-dodge" opacity="0.13">
<path d="M119.692 349.63H101.282V368.052H119.692V349.63Z" fill="#5C5C5C"/>
</g>
</g>
<g style="mix-blend-mode:color-dodge" opacity="0.44">
<g style="mix-blend-mode:color-dodge" opacity="0.44">
<path d="M94.6677 349.63H76.2583V368.052H94.6677V349.63Z" fill="#5C5C5C"/>
</g>
</g>
<g style="mix-blend-mode:color-dodge" opacity="0.43">
<g style="mix-blend-mode:color-dodge" opacity="0.43">
<path d="M470.024 372.947H451.614V391.369H470.024V372.947Z" fill="#5C5C5C"/>
</g>
</g>
<g style="mix-blend-mode:color-dodge" opacity="0.66">
<g style="mix-blend-mode:color-dodge" opacity="0.66">
<path d="M445 372.947H426.59V391.369H445V372.947Z" fill="#5C5C5C"/>
</g>
</g>
<g style="mix-blend-mode:color-dodge" opacity="0.55">
<g style="mix-blend-mode:color-dodge" opacity="0.55">
<path d="M419.975 372.947H401.566V391.369H419.975V372.947Z" fill="#5C5C5C"/>
</g>
</g>
<g style="mix-blend-mode:color-dodge" opacity="0.43">
<g style="mix-blend-mode:color-dodge" opacity="0.43">
<path d="M394.951 372.947H376.542V391.369H394.951V372.947Z" fill="#5C5C5C"/>
</g>
</g>
<g style="mix-blend-mode:color-dodge" opacity="0.56">
<g style="mix-blend-mode:color-dodge" opacity="0.56">
<path d="M369.927 372.947H351.518V391.369H369.927V372.947Z" fill="#5C5C5C"/>
</g>
</g>
<g style="mix-blend-mode:color-dodge" opacity="0.31">
<g style="mix-blend-mode:color-dodge" opacity="0.31">
<path d="M344.903 372.947H326.494V391.369H344.903V372.947Z" fill="#5C5C5C"/>
</g>
</g>
<g style="mix-blend-mode:color-dodge" opacity="0.88">
<g style="mix-blend-mode:color-dodge" opacity="0.88">
<path d="M319.879 372.947H301.47V391.369H319.879V372.947Z" fill="#5C5C5C"/>
</g>
</g>
<g style="mix-blend-mode:color-dodge" opacity="0.63">
<g style="mix-blend-mode:color-dodge" opacity="0.63">
<path d="M294.855 372.947H276.445V391.369H294.855V372.947Z" fill="#5C5C5C"/>
</g>
</g>
<g style="mix-blend-mode:color-dodge" opacity="0.04">
<g style="mix-blend-mode:color-dodge" opacity="0.04">
<path d="M269.831 372.947H251.421V391.369H269.831V372.947Z" fill="#5C5C5C"/>
</g>
</g>
<g style="mix-blend-mode:color-dodge" opacity="0.11">
<g style="mix-blend-mode:color-dodge" opacity="0.11">
<path d="M244.806 372.947H226.397V391.369H244.806V372.947Z" fill="#5C5C5C"/>
</g>
</g>
<g style="mix-blend-mode:color-dodge" opacity="0.86">
<g style="mix-blend-mode:color-dodge" opacity="0.86">
<path d="M219.788 372.947H201.379V391.369H219.788V372.947Z" fill="#5C5C5C"/>
</g>
</g>
<g style="mix-blend-mode:color-dodge" opacity="0.58">
<g style="mix-blend-mode:color-dodge" opacity="0.58">
<path d="M194.764 372.947H176.354V391.369H194.764V372.947Z" fill="#5C5C5C"/>
</g>
</g>
<g style="mix-blend-mode:color-dodge" opacity="0.52">
<g style="mix-blend-mode:color-dodge" opacity="0.52">
<path d="M169.74 372.947H151.331V391.369H169.74V372.947Z" fill="#5C5C5C"/>
</g>
</g>
<g style="mix-blend-mode:color-dodge" opacity="0.03">
<g style="mix-blend-mode:color-dodge" opacity="0.03">
<path d="M144.716 372.947H126.307V391.369H144.716V372.947Z" fill="#5C5C5C"/>
</g>
</g>
<g style="mix-blend-mode:color-dodge" opacity="0.86">
<g style="mix-blend-mode:color-dodge" opacity="0.86">
<path d="M119.692 372.947H101.282V391.369H119.692V372.947Z" fill="#5C5C5C"/>
</g>
</g>
<g style="mix-blend-mode:color-dodge">
<path d="M470.024 396.259H451.614V414.681H470.024V396.259Z" fill="#5C5C5C"/>
</g>
<g style="mix-blend-mode:color-dodge" opacity="0.37">
<g style="mix-blend-mode:color-dodge" opacity="0.37">
<path d="M445 396.255H426.59V414.678H445V396.255Z" fill="#5C5C5C"/>
</g>
</g>
<g style="mix-blend-mode:color-dodge" opacity="0.85">
<g style="mix-blend-mode:color-dodge" opacity="0.85">
<path d="M419.975 396.255H401.566V414.678H419.975V396.255Z" fill="#5C5C5C"/>
</g>
</g>
<g style="mix-blend-mode:color-dodge" opacity="0.58">
<g style="mix-blend-mode:color-dodge" opacity="0.58">
<path d="M394.951 396.255H376.542V414.678H394.951V396.255Z" fill="#5C5C5C"/>
</g>
</g>
<g style="mix-blend-mode:color-dodge" opacity="0.43">
<g style="mix-blend-mode:color-dodge" opacity="0.43">
<path d="M369.927 396.255H351.518V414.678H369.927V396.255Z" fill="#5C5C5C"/>
</g>
</g>
<g style="mix-blend-mode:color-dodge" opacity="0.04">
<g style="mix-blend-mode:color-dodge" opacity="0.04">
<path d="M344.903 396.255H326.494V414.678H344.903V396.255Z" fill="#5C5C5C"/>
</g>
</g>
<g style="mix-blend-mode:color-dodge" opacity="0.85">
<g style="mix-blend-mode:color-dodge" opacity="0.85">
<path d="M319.879 396.255H301.47V414.678H319.879V396.255Z" fill="#5C5C5C"/>
</g>
</g>
<g style="mix-blend-mode:color-dodge" opacity="0.79">
<g style="mix-blend-mode:color-dodge" opacity="0.79">
<path d="M294.855 396.255H276.445V414.678H294.855V396.255Z" fill="#5C5C5C"/>
</g>
</g>
<g style="mix-blend-mode:color-dodge" opacity="0.76">
<g style="mix-blend-mode:color-dodge" opacity="0.76">
<path d="M269.831 396.255H251.421V414.678H269.831V396.255Z" fill="#5C5C5C"/>
</g>
</g>
<g style="mix-blend-mode:color-dodge" opacity="0.02">
<g style="mix-blend-mode:color-dodge" opacity="0.02">
<path d="M470.024 419.577H451.614V437.999H470.024V419.577Z" fill="#5C5C5C"/>
</g>
</g>
<g style="mix-blend-mode:color-dodge" opacity="0.63">
<g style="mix-blend-mode:color-dodge" opacity="0.63">
<path d="M445 419.577H426.59V437.999H445V419.577Z" fill="#5C5C5C"/>
</g>
</g>
<g style="mix-blend-mode:color-dodge" opacity="0.02">
<g style="mix-blend-mode:color-dodge" opacity="0.02">
<path d="M419.975 419.577H401.566V437.999H419.975V419.577Z" fill="#5C5C5C"/>
</g>
</g>
<g style="mix-blend-mode:color-dodge" opacity="0.35">
<g style="mix-blend-mode:color-dodge" opacity="0.35">
<path d="M394.951 419.577H376.542V437.999H394.951V419.577Z" fill="#5C5C5C"/>
</g>
</g>
<g style="mix-blend-mode:color-dodge" opacity="0.97">
<g style="mix-blend-mode:color-dodge" opacity="0.97">
<path d="M369.927 419.577H351.518V437.999H369.927V419.577Z" fill="#5C5C5C"/>
</g>
</g>
<g style="mix-blend-mode:color-dodge" opacity="0.95">
<g style="mix-blend-mode:color-dodge" opacity="0.95">
<path d="M344.903 419.577H326.494V437.999H344.903V419.577Z" fill="#5C5C5C"/>
</g>
</g>
<g style="mix-blend-mode:color-dodge" opacity="0.1">
<g style="mix-blend-mode:color-dodge" opacity="0.1">
<path d="M319.879 419.577H301.47V437.999H319.879V419.577Z" fill="#5C5C5C"/>
</g>
</g>
<g style="mix-blend-mode:color-dodge" opacity="0.28">
<g style="mix-blend-mode:color-dodge" opacity="0.28">
<path d="M294.855 419.577H276.445V437.999H294.855V419.577Z" fill="#5C5C5C"/>
</g>
</g>
<g style="mix-blend-mode:color-dodge" opacity="0.44">
<g style="mix-blend-mode:color-dodge" opacity="0.44">
<path d="M269.831 419.577H251.421V437.999H269.831V419.577Z" fill="#5C5C5C"/>
</g>
</g>
</g>
<g style="mix-blend-mode:color-dodge" opacity="0.8">
<g style="mix-blend-mode:color-dodge" opacity="0.15">
<g style="mix-blend-mode:color-dodge" opacity="0.15">
<path d="M0.614559 135H19.0239V116.577H0.614559V135Z" fill="#5C5C5C"/>
</g>
</g>
<g style="mix-blend-mode:color-dodge" opacity="0.36">
<g style="mix-blend-mode:color-dodge" opacity="0.36">
<path d="M25.6385 135H44.0479V116.577H25.6385V135Z" fill="#5C5C5C"/>
</g>
</g>
<g style="mix-blend-mode:color-dodge" opacity="0.76">
<g style="mix-blend-mode:color-dodge" opacity="0.76">
<path d="M300.898 135H319.308V116.577H300.898V135Z" fill="#5C5C5C"/>
</g>
</g>
<g style="mix-blend-mode:color-dodge" opacity="0.54">
<g style="mix-blend-mode:color-dodge" opacity="0.54">
<path d="M325.922 135H344.332V116.577H325.922V135Z" fill="#5C5C5C"/>
</g>
</g>
<g style="mix-blend-mode:color-dodge" opacity="0.05">
<g style="mix-blend-mode:color-dodge" opacity="0.05">
<path d="M350.947 135H369.356V116.577H350.947V135Z" fill="#5C5C5C"/>
</g>
</g>
<g style="mix-blend-mode:color-dodge" opacity="0.92">
<g style="mix-blend-mode:color-dodge" opacity="0.92">
<path d="M375.971 135H394.38V116.577H375.971V135Z" fill="#5C5C5C"/>
</g>
</g>
<g style="mix-blend-mode:color-dodge" opacity="0.03">
<g style="mix-blend-mode:color-dodge" opacity="0.03">
<path d="M426.019 135H444.428V116.577H426.019V135Z" fill="#5C5C5C"/>
</g>
</g>
<g style="mix-blend-mode:color-dodge" opacity="0.17">
<g style="mix-blend-mode:color-dodge" opacity="0.17">
<path d="M451.615 135H470.024V116.577H451.615V135Z" fill="#5C5C5C"/>
</g>
</g>
<g style="mix-blend-mode:color-dodge" opacity="0.64">
<g style="mix-blend-mode:color-dodge" opacity="0.64">
<path d="M0.614559 111.683H19.0239V93.2605H0.614559V111.683Z" fill="#5C5C5C"/>
</g>
</g>
<g style="mix-blend-mode:color-dodge" opacity="0.19">
<g style="mix-blend-mode:color-dodge" opacity="0.19">
<path d="M25.6385 111.683H44.0479V93.2605H25.6385V111.683Z" fill="#5C5C5C"/>
</g>
</g>
<g style="mix-blend-mode:color-dodge" opacity="0.43">
<g style="mix-blend-mode:color-dodge" opacity="0.43">
<path d="M50.6629 111.683H69.0723V93.2605H50.6629V111.683Z" fill="#5C5C5C"/>
</g>
</g>
<g style="mix-blend-mode:color-dodge" opacity="0.59">
<g style="mix-blend-mode:color-dodge" opacity="0.59">
<path d="M275.874 111.683H294.284V93.2605H275.874V111.683Z" fill="#5C5C5C"/>
</g>
</g>
<g style="mix-blend-mode:color-dodge" opacity="0.92">
<g style="mix-blend-mode:color-dodge" opacity="0.92">
<path d="M300.898 111.683H319.308V93.2605H300.898V111.683Z" fill="#5C5C5C"/>
</g>
</g>
<g style="mix-blend-mode:color-dodge" opacity="0.42">
<g style="mix-blend-mode:color-dodge" opacity="0.42">
<path d="M325.922 111.683H344.332V93.2605H325.922V111.683Z" fill="#5C5C5C"/>
</g>
</g>
<g style="mix-blend-mode:color-dodge" opacity="0.53">
<g style="mix-blend-mode:color-dodge" opacity="0.53">
<path d="M350.947 111.683H369.356V93.2605H350.947V111.683Z" fill="#5C5C5C"/>
</g>
</g>
<g style="mix-blend-mode:color-dodge" opacity="0.63">
<g style="mix-blend-mode:color-dodge" opacity="0.63">
<path d="M375.971 111.683H394.38V93.2605H375.971V111.683Z" fill="#5C5C5C"/>
</g>
</g>
<g style="mix-blend-mode:color-dodge" opacity="0.04">
<g style="mix-blend-mode:color-dodge" opacity="0.04">
<path d="M400.994 111.683H419.404V93.2605H400.994V111.683Z" fill="#5C5C5C"/>
</g>
</g>
<g style="mix-blend-mode:color-dodge" opacity="0.18">
<g style="mix-blend-mode:color-dodge" opacity="0.18">
<path d="M0.614559 88.3701H19.0239V69.9475H0.614559V88.3701Z" fill="#5C5C5C"/>
</g>
</g>
<g style="mix-blend-mode:color-dodge" opacity="0.32">
<g style="mix-blend-mode:color-dodge" opacity="0.32">
<path d="M25.6385 88.3701H44.0479V69.9475H25.6385V88.3701Z" fill="#5C5C5C"/>
</g>
</g>
<g style="mix-blend-mode:color-dodge">
<path d="M50.6629 88.3706H69.0723V69.948H50.6629V88.3706Z" fill="#5C5C5C"/>
</g>
<g style="mix-blend-mode:color-dodge" opacity="0.52">
<g style="mix-blend-mode:color-dodge" opacity="0.52">
<path d="M250.85 88.3701H269.259V69.9475H250.85V88.3701Z" fill="#5C5C5C"/>
</g>
</g>
<g style="mix-blend-mode:color-dodge" opacity="0.81">
<g style="mix-blend-mode:color-dodge" opacity="0.81">
<path d="M275.874 88.3701H294.284V69.9475H275.874V88.3701Z" fill="#5C5C5C"/>
</g>
</g>
<g style="mix-blend-mode:color-dodge" opacity="0.84">
<g style="mix-blend-mode:color-dodge" opacity="0.84">
<path d="M300.898 88.3701H319.308V69.9475H300.898V88.3701Z" fill="#5C5C5C"/>
</g>
</g>
<g style="mix-blend-mode:color-dodge" opacity="0.95">
<g style="mix-blend-mode:color-dodge" opacity="0.95">
<path d="M325.922 88.3701H344.332V69.9475H325.922V88.3701Z" fill="#5C5C5C"/>
</g>
</g>
<g style="mix-blend-mode:color-dodge" opacity="0.13">
<g style="mix-blend-mode:color-dodge" opacity="0.13">
<path d="M350.947 88.3701H369.356V69.9475H350.947V88.3701Z" fill="#5C5C5C"/>
</g>
</g>
<g style="mix-blend-mode:color-dodge" opacity="0.44">
<g style="mix-blend-mode:color-dodge" opacity="0.44">
<path d="M375.971 88.3701H394.38V69.9475H375.971V88.3701Z" fill="#5C5C5C"/>
</g>
</g>
<g style="mix-blend-mode:color-dodge" opacity="0.43">
<g style="mix-blend-mode:color-dodge" opacity="0.43">
<path d="M0.614559 65.0532H19.0239V46.6306H0.614559V65.0532Z" fill="#5C5C5C"/>
</g>
</g>
<g style="mix-blend-mode:color-dodge" opacity="0.66">
<g style="mix-blend-mode:color-dodge" opacity="0.66">
<path d="M25.6385 65.0532H44.0479V46.6306H25.6385V65.0532Z" fill="#5C5C5C"/>
</g>
</g>
<g style="mix-blend-mode:color-dodge" opacity="0.55">
<g style="mix-blend-mode:color-dodge" opacity="0.55">
<path d="M50.6629 65.0532H69.0723V46.6306H50.6629V65.0532Z" fill="#5C5C5C"/>
</g>
</g>
<g style="mix-blend-mode:color-dodge" opacity="0.43">
<g style="mix-blend-mode:color-dodge" opacity="0.43">
<path d="M75.6868 65.0532H94.0962V46.6306H75.6868V65.0532Z" fill="#5C5C5C"/>
</g>
</g>
<g style="mix-blend-mode:color-dodge" opacity="0.56">
<g style="mix-blend-mode:color-dodge" opacity="0.56">
<path d="M100.711 65.0532H119.12V46.6306H100.711V65.0532Z" fill="#5C5C5C"/>
</g>
</g>
<g style="mix-blend-mode:color-dodge" opacity="0.31">
<g style="mix-blend-mode:color-dodge" opacity="0.31">
<path d="M125.735 65.0532H144.145V46.6306H125.735V65.0532Z" fill="#5C5C5C"/>
</g>
</g>
<g style="mix-blend-mode:color-dodge" opacity="0.88">
<g style="mix-blend-mode:color-dodge" opacity="0.88">
<path d="M150.76 65.0532H169.169V46.6306H150.76V65.0532Z" fill="#5C5C5C"/>
</g>
</g>
<g style="mix-blend-mode:color-dodge" opacity="0.63">
<g style="mix-blend-mode:color-dodge" opacity="0.63">
<path d="M175.784 65.0532H194.193V46.6306H175.784V65.0532Z" fill="#5C5C5C"/>
</g>
</g>
<g style="mix-blend-mode:color-dodge" opacity="0.04">
<g style="mix-blend-mode:color-dodge" opacity="0.04">
<path d="M200.807 65.0532H219.217V46.6306H200.807V65.0532Z" fill="#5C5C5C"/>
</g>
</g>
<g style="mix-blend-mode:color-dodge" opacity="0.11">
<g style="mix-blend-mode:color-dodge" opacity="0.11">
<path d="M225.832 65.0532H244.241V46.6306H225.832V65.0532Z" fill="#5C5C5C"/>
</g>
</g>
<g style="mix-blend-mode:color-dodge" opacity="0.86">
<g style="mix-blend-mode:color-dodge" opacity="0.86">
<path d="M250.85 65.0532H269.259V46.6306H250.85V65.0532Z" fill="#5C5C5C"/>
</g>
</g>
<g style="mix-blend-mode:color-dodge" opacity="0.58">
<g style="mix-blend-mode:color-dodge" opacity="0.58">
<path d="M275.874 65.0532H294.284V46.6306H275.874V65.0532Z" fill="#5C5C5C"/>
</g>
</g>
<g style="mix-blend-mode:color-dodge" opacity="0.52">
<g style="mix-blend-mode:color-dodge" opacity="0.52">
<path d="M300.898 65.0532H319.308V46.6306H300.898V65.0532Z" fill="#5C5C5C"/>
</g>
</g>
<g style="mix-blend-mode:color-dodge" opacity="0.03">
<g style="mix-blend-mode:color-dodge" opacity="0.03">
<path d="M325.922 65.0532H344.332V46.6306H325.922V65.0532Z" fill="#5C5C5C"/>
</g>
</g>
<g style="mix-blend-mode:color-dodge" opacity="0.86">
<g style="mix-blend-mode:color-dodge" opacity="0.86">
<path d="M350.947 65.0532H369.356V46.6306H350.947V65.0532Z" fill="#5C5C5C"/>
</g>
</g>
<g style="mix-blend-mode:color-dodge">
<path d="M0.614559 41.7412H19.0239V23.3186H0.614559V41.7412Z" fill="#5C5C5C"/>
</g>
<g style="mix-blend-mode:color-dodge" opacity="0.37">
<g style="mix-blend-mode:color-dodge" opacity="0.37">
<path d="M25.6385 41.7446H44.0479V23.322H25.6385V41.7446Z" fill="#5C5C5C"/>
</g>
</g>
<g style="mix-blend-mode:color-dodge" opacity="0.85">
<g style="mix-blend-mode:color-dodge" opacity="0.85">
<path d="M50.6629 41.7446H69.0723V23.322H50.6629V41.7446Z" fill="#5C5C5C"/>
</g>
</g>
<g style="mix-blend-mode:color-dodge" opacity="0.58">
<g style="mix-blend-mode:color-dodge" opacity="0.58">
<path d="M75.6868 41.7446H94.0962V23.322H75.6868V41.7446Z" fill="#5C5C5C"/>
</g>
</g>
<g style="mix-blend-mode:color-dodge" opacity="0.43">
<g style="mix-blend-mode:color-dodge" opacity="0.43">
<path d="M100.711 41.7446H119.12V23.322H100.711V41.7446Z" fill="#5C5C5C"/>
</g>
</g>
<g style="mix-blend-mode:color-dodge" opacity="0.04">
<g style="mix-blend-mode:color-dodge" opacity="0.04">
<path d="M125.735 41.7446H144.145V23.322H125.735V41.7446Z" fill="#5C5C5C"/>
</g>
</g>
<g style="mix-blend-mode:color-dodge" opacity="0.85">
<g style="mix-blend-mode:color-dodge" opacity="0.85">
<path d="M150.76 41.7446H169.169V23.322H150.76V41.7446Z" fill="#5C5C5C"/>
</g>
</g>
<g style="mix-blend-mode:color-dodge" opacity="0.79">
<g style="mix-blend-mode:color-dodge" opacity="0.79">
<path d="M175.784 41.7446H194.193V23.322H175.784V41.7446Z" fill="#5C5C5C"/>
</g>
</g>
<g style="mix-blend-mode:color-dodge" opacity="0.76">
<g style="mix-blend-mode:color-dodge" opacity="0.76">
<path d="M200.807 41.7446H219.217V23.322H200.807V41.7446Z" fill="#5C5C5C"/>
</g>
</g>
<g style="mix-blend-mode:color-dodge" opacity="0.02">
<g style="mix-blend-mode:color-dodge" opacity="0.02">
<path d="M0.614559 18.4233H19.0239V0.000705719H0.614559V18.4233Z" fill="#5C5C5C"/>
</g>
</g>
<g style="mix-blend-mode:color-dodge" opacity="0.63">
<g style="mix-blend-mode:color-dodge" opacity="0.63">
<path d="M25.6385 18.4233H44.0479V0.000705719H25.6385V18.4233Z" fill="#5C5C5C"/>
</g>
</g>
<g style="mix-blend-mode:color-dodge" opacity="0.02">
<g style="mix-blend-mode:color-dodge" opacity="0.02">
<path d="M50.6629 18.4233H69.0723V0.000705719H50.6629V18.4233Z" fill="#5C5C5C"/>
</g>
</g>
<g style="mix-blend-mode:color-dodge" opacity="0.35">
<g style="mix-blend-mode:color-dodge" opacity="0.35">
<path d="M75.6868 18.4233H94.0962V0.000705719H75.6868V18.4233Z" fill="#5C5C5C"/>
</g>
</g>
<g style="mix-blend-mode:color-dodge" opacity="0.97">
<g style="mix-blend-mode:color-dodge" opacity="0.97">
<path d="M100.711 18.4233H119.12V0.000705719H100.711V18.4233Z" fill="#5C5C5C" fill-opacity="0.5"/>
</g>
</g>
<g style="mix-blend-mode:color-dodge" opacity="0.95">
<g style="mix-blend-mode:color-dodge" opacity="0.95">
<path d="M125.735 18.4233H144.145V0.000705719H125.735V18.4233Z" fill="#5C5C5C" fill-opacity="0.5"/>
</g>
</g>
<g style="mix-blend-mode:color-dodge" opacity="0.1">
<g style="mix-blend-mode:color-dodge" opacity="0.1">
<path d="M150.76 18.4233H169.169V0.000705719H150.76V18.4233Z" fill="#5C5C5C"/>
</g>
</g>
<g style="mix-blend-mode:color-dodge" opacity="0.28">
<g style="mix-blend-mode:color-dodge" opacity="0.28">
<path d="M175.784 18.4233H194.193V0.000705719H175.784V18.4233Z" fill="#5C5C5C"/>
</g>
</g>
<g style="mix-blend-mode:color-dodge" opacity="0.44">
<g style="mix-blend-mode:color-dodge" opacity="0.44">
<path d="M200.807 18.4233H219.217V0.000705719H200.807V18.4233Z" fill="#5C5C5C"/>
</g>
</g>
</g>
</svg>
