<svg width="375" height="494" viewBox="0 0 375 494" fill="none" xmlns="http://www.w3.org/2000/svg">
<rect width="375" height="494" fill="white"/>
<g clip-path="url(#clip0_1605_55099)">
<rect width="375" height="436" fill="white"/>
<g opacity="0.3">
<path d="M419.091 502.406V402.941H411.676V355.546H400.859V190.757H385.215V169.491L351.82 151.604V130.169H347.197V190.757H340.707V355.546H334.235V268.892H316.65V224.237H311.749V355.546H298.399V305.58H289.597V292.813H269.238V249.22H258.088V218.395H244.386V173.485H239.504V218.395H225.802V249.22H214.652V292.813H194.293V305.58H185.491V355.546H175.08V292.813H154.722V157.807H148.231V142.915H104.74V157.807H95.494V255.614H58.4745V265.174H44.606V272.61H58.4745V310.891H19.6058V183.321H11.2848V156.214H-6.7627V60H-11.8478V156.214H-24.8102V183.321H-100.754V174.399H-105.377V234.987H-111.849V236.049H-115.75V296.658H-122.222V313.122H-135.924V268.488H-140.824V374.793H-146.279V330.138H-151.198V399.776H-154.175V349.81H-162.958V337.043H-183.317V293.45H-194.468V262.625H-208.17V217.715H-213.07V262.625H-226.772V293.45H-237.922V337.043H-258.281V349.81H-267.064V398.714H-268.655V399.776H-273V502.406H419.091Z" fill="url(#paint0_linear_1605_55099)"/>
<path d="M5.18419 189.27H-0.0673218V195.303H5.18419V189.27Z" fill="#F0F0F0"/>
<path d="M5.18419 199.382H-0.0673218V205.415H5.18419V199.382Z" fill="#F0F0F0"/>
<path d="M5.18419 209.473H-0.0673218V215.506H5.18419V209.473Z" fill="#F0F0F0"/>
<path d="M5.18419 219.585H-0.0673218V225.619H5.18419V219.585Z" fill="#F0F0F0"/>
<path d="M5.18419 229.676H-0.0673218V235.71H5.18419V229.676Z" fill="#F0F0F0"/>
<path d="M5.18419 239.766H-0.0673218V245.799H5.18419V239.766Z" fill="#F0F0F0"/>
<path d="M5.18419 249.879H-0.0673218V255.912H5.18419V249.879Z" fill="#F0F0F0"/>
<path d="M5.18419 259.97H-0.0673218V266.003H5.18419V259.97Z" fill="#F0F0F0"/>
<path d="M5.18419 270.082H-0.0673218V276.115H5.18419V270.082Z" fill="#F0F0F0"/>
<path d="M5.18419 280.173H-0.0673218V286.207H5.18419V280.173Z" fill="#F0F0F0"/>
<path d="M5.18419 310.467H-0.0673218V316.5H5.18419V310.467Z" fill="#F0F0F0"/>
<path d="M5.18419 320.579H-0.0673218V326.612H5.18419V320.579Z" fill="#F0F0F0"/>
<path d="M5.18419 330.669H-0.0673218V336.703H5.18419V330.669Z" fill="#F0F0F0"/>
<path d="M5.18419 340.76H-0.0673218V346.793H5.18419V340.76Z" fill="#F0F0F0"/>
<path d="M13.5054 189.27H8.25391V195.303H13.5054V189.27Z" fill="#F0F0F0"/>
<path d="M13.5054 199.382H8.25391V205.415H13.5054V199.382Z" fill="#F0F0F0"/>
<path d="M13.5054 209.473H8.25391V215.506H13.5054V209.473Z" fill="#F0F0F0"/>
<path d="M13.5054 219.585H8.25391V225.619H13.5054V219.585Z" fill="#F0F0F0"/>
<path d="M13.5054 229.676H8.25391V235.71H13.5054V229.676Z" fill="#F0F0F0"/>
<path d="M13.5054 239.766H8.25391V245.799H13.5054V239.766Z" fill="#F0F0F0"/>
<path d="M13.5054 249.879H8.25391V255.912H13.5054V249.879Z" fill="#F0F0F0"/>
<path d="M13.5054 259.97H8.25391V266.003H13.5054V259.97Z" fill="#F0F0F0"/>
<path d="M13.5054 270.082H8.25391V276.115H13.5054V270.082Z" fill="#F0F0F0"/>
<path d="M13.5054 280.173H8.25391V286.207H13.5054V280.173Z" fill="#F0F0F0"/>
<path d="M13.5054 310.467H8.25391V316.5H13.5054V310.467Z" fill="#F0F0F0"/>
<path d="M13.5054 320.579H8.25391V326.612H13.5054V320.579Z" fill="#F0F0F0"/>
<path d="M13.5054 330.669H8.25391V336.703H13.5054V330.669Z" fill="#F0F0F0"/>
<path d="M107.274 163.055H102.022V169.088H107.274V163.055Z" fill="#F0F0F0"/>
<path d="M107.274 173.146H102.022V179.179H107.274V173.146Z" fill="#F0F0F0"/>
<path d="M107.274 183.257H102.022V189.291H107.274V183.257Z" fill="#F0F0F0"/>
<path d="M107.274 193.349H102.022V199.382H107.274V193.349Z" fill="#F0F0F0"/>
<path d="M107.274 203.461H102.022V209.494H107.274V203.461Z" fill="#F0F0F0"/>
<path d="M107.274 213.552H102.022V219.585H107.274V213.552Z" fill="#F0F0F0"/>
<path d="M107.274 223.642H102.022V229.675H107.274V223.642Z" fill="#F0F0F0"/>
<path d="M107.274 233.754H102.022V239.788H107.274V233.754Z" fill="#F0F0F0"/>
<path d="M107.274 264.048H102.022V270.082H107.274V264.048Z" fill="#F0F0F0"/>
<path d="M107.274 274.139H102.022V280.172H107.274V274.139Z" fill="#F0F0F0"/>
<path d="M115.597 163.055H110.346V169.088H115.597V163.055Z" fill="#F0F0F0"/>
<path d="M115.597 173.146H110.346V179.179H115.597V173.146Z" fill="#F0F0F0"/>
<path d="M115.597 183.257H110.346V189.291H115.597V183.257Z" fill="#F0F0F0"/>
<path d="M115.597 193.349H110.346V199.382H115.597V193.349Z" fill="#F0F0F0"/>
<path d="M115.597 203.461H110.346V209.494H115.597V203.461Z" fill="#F0F0F0"/>
<path d="M115.597 213.552H110.346V219.585H115.597V213.552Z" fill="#F0F0F0"/>
<path d="M115.597 223.642H110.346V229.675H115.597V223.642Z" fill="#F0F0F0"/>
<path d="M115.597 233.754H110.346V239.788H115.597V233.754Z" fill="#F0F0F0"/>
<path d="M115.597 274.139H110.346V280.172H115.597V274.139Z" fill="#F0F0F0"/>
<path d="M123.935 163.055H118.684V169.088H123.935V163.055Z" fill="#F0F0F0"/>
<path d="M123.935 173.146H118.684V179.179H123.935V173.146Z" fill="#F0F0F0"/>
<path d="M123.935 183.257H118.684V189.291H123.935V183.257Z" fill="#F0F0F0"/>
<path d="M123.935 193.349H118.684V199.382H123.935V193.349Z" fill="#F0F0F0"/>
<path d="M123.935 203.461H118.684V209.494H123.935V203.461Z" fill="#F0F0F0"/>
<path d="M123.935 213.552H118.684V219.585H123.935V213.552Z" fill="#F0F0F0"/>
<path d="M123.935 223.642H118.684V229.675H123.935V223.642Z" fill="#F0F0F0"/>
<path d="M123.935 233.754H118.684V239.788H123.935V233.754Z" fill="#F0F0F0"/>
<path d="M132.257 163.055H127.005V169.088H132.257V163.055Z" fill="#F0F0F0"/>
<path d="M132.256 173.146H127.005V179.179H132.256V173.146Z" fill="#F0F0F0"/>
<path d="M132.256 183.257H127.005V189.291H132.256V183.257Z" fill="#F0F0F0"/>
<path d="M132.256 193.349H127.005V199.382H132.256V193.349Z" fill="#F0F0F0"/>
<path d="M132.256 203.461H127.005V209.494H132.256V203.461Z" fill="#F0F0F0"/>
<path d="M132.256 213.552H127.005V219.585H132.256V213.552Z" fill="#F0F0F0"/>
<path d="M132.256 233.754H127.005V239.788H132.256V233.754Z" fill="#F0F0F0"/>
<path d="M132.256 243.845H127.005V249.879H132.256V243.845Z" fill="#F0F0F0"/>
<path d="M132.256 274.139H127.005V280.172H132.256V274.139Z" fill="#F0F0F0"/>
<path d="M132.256 284.252H127.005V290.285H132.256V284.252Z" fill="#F0F0F0"/>
<path d="M132.256 294.342H127.005V300.375H132.256V294.342Z" fill="#F0F0F0"/>
<path d="M132.256 304.455H127.005V310.488H132.256V304.455Z" fill="#F0F0F0"/>
<path d="M132.256 314.545H127.005V320.579H132.256V314.545Z" fill="#F0F0F0"/>
<path d="M132.256 324.636H127.005V330.67H132.256V324.636Z" fill="#F0F0F0"/>
<path d="M132.256 334.748H127.005V340.781H132.256V334.748Z" fill="#F0F0F0"/>
<path d="M140.578 163.055H135.326V169.088H140.578V163.055Z" fill="#F0F0F0"/>
<path d="M140.578 173.146H135.326V179.179H140.578V173.146Z" fill="#F0F0F0"/>
<path d="M140.578 183.257H135.326V189.291H140.578V183.257Z" fill="#F0F0F0"/>
<path d="M140.578 193.349H135.326V199.382H140.578V193.349Z" fill="#F0F0F0"/>
<path d="M140.578 203.461H135.326V209.494H140.578V203.461Z" fill="#F0F0F0"/>
<path d="M140.578 213.552H135.326V219.585H140.578V213.552Z" fill="#F0F0F0"/>
<path d="M140.578 243.845H135.326V249.879H140.578V243.845Z" fill="#F0F0F0"/>
<path d="M140.578 253.958H135.326V259.991H140.578V253.958Z" fill="#F0F0F0"/>
<path d="M140.578 264.048H135.326V270.082H140.578V264.048Z" fill="#F0F0F0"/>
<path d="M140.578 274.139H135.326V280.172H140.578V274.139Z" fill="#F0F0F0"/>
<path d="M140.578 284.252H135.326V290.285H140.578V284.252Z" fill="#F0F0F0"/>
<path d="M140.578 294.342H135.326V300.375H140.578V294.342Z" fill="#F0F0F0"/>
<path d="M140.578 304.455H135.326V310.488H140.578V304.455Z" fill="#F0F0F0"/>
<path d="M140.578 314.545H135.326V320.579H140.578V314.545Z" fill="#F0F0F0"/>
<path d="M140.578 324.636H135.326V330.67H140.578V324.636Z" fill="#F0F0F0"/>
<path d="M140.578 334.748H135.326V340.781H140.578V334.748Z" fill="#F0F0F0"/>
<path d="M140.578 344.839H135.326V350.873H140.578V344.839Z" fill="#F0F0F0"/>
<path d="M140.578 365.042H135.326V371.076H140.578V365.042Z" fill="#F0F0F0"/>
<path d="M148.92 163.055H143.668V169.088H148.92V163.055Z" fill="#F0F0F0"/>
<path d="M148.92 173.146H143.668V179.179H148.92V173.146Z" fill="#F0F0F0"/>
<path d="M148.92 183.257H143.668V189.291H148.92V183.257Z" fill="#F0F0F0"/>
<path d="M148.92 193.349H143.668V199.382H148.92V193.349Z" fill="#F0F0F0"/>
<path d="M148.92 203.461H143.668V209.494H148.92V203.461Z" fill="#F0F0F0"/>
<path d="M148.92 213.552H143.668V219.585H148.92V213.552Z" fill="#F0F0F0"/>
<path d="M148.92 243.845H143.668V249.879H148.92V243.845Z" fill="#F0F0F0"/>
<path d="M148.92 253.958H143.668V259.991H148.92V253.958Z" fill="#F0F0F0"/>
<path d="M148.92 264.048H143.668V270.082H148.92V264.048Z" fill="#F0F0F0"/>
<path d="M148.92 274.139H143.668V280.172H148.92V274.139Z" fill="#F0F0F0"/>
<path d="M148.92 304.455H143.668V310.488H148.92V304.455Z" fill="#F0F0F0"/>
<path d="M148.92 314.545H143.668V320.579H148.92V314.545Z" fill="#F0F0F0"/>
<path d="M148.92 324.636H143.668V330.67H148.92V324.636Z" fill="#F0F0F0"/>
<path d="M148.92 334.748H143.668V340.781H148.92V334.748Z" fill="#F0F0F0"/>
<path d="M148.92 344.839H143.668V350.873H148.92V344.839Z" fill="#F0F0F0"/>
<path d="M148.92 365.042H143.668V371.076H148.92V365.042Z" fill="#F0F0F0"/>
<path d="M148.92 375.134H143.668V381.167H148.92V375.134Z" fill="#F0F0F0"/>
<path d="M224.492 256.953H219.24V262.986H224.492V256.953Z" fill="#F0F0F0"/>
<path d="M224.492 267.065H219.24V273.098H224.492V267.065Z" fill="#F0F0F0"/>
<path d="M224.492 277.156H219.24V283.189H224.492V277.156Z" fill="#F0F0F0"/>
<path d="M224.492 287.269H219.24V293.302H224.492V287.269Z" fill="#F0F0F0"/>
<path d="M224.492 297.359H219.24V303.393H224.492V297.359Z" fill="#F0F0F0"/>
<path d="M224.492 307.45H219.24V313.484H224.492V307.45Z" fill="#F0F0F0"/>
<path d="M224.492 317.562H219.24V323.595H224.492V317.562Z" fill="#F0F0F0"/>
<path d="M224.492 347.856H219.24V353.889H224.492V347.856Z" fill="#F0F0F0"/>
<path d="M224.492 357.947H219.24V363.98H224.492V357.947Z" fill="#F0F0F0"/>
<path d="M224.492 368.059H219.24V374.092H224.492V368.059Z" fill="#F0F0F0"/>
<path d="M232.812 256.953H227.561V262.986H232.812V256.953Z" fill="#F0F0F0"/>
<path d="M232.812 267.065H227.561V273.098H232.812V267.065Z" fill="#F0F0F0"/>
<path d="M232.812 277.156H227.561V283.189H232.812V277.156Z" fill="#F0F0F0"/>
<path d="M232.812 287.269H227.561V293.302H232.812V287.269Z" fill="#F0F0F0"/>
<path d="M232.812 297.359H227.561V303.393H232.812V297.359Z" fill="#F0F0F0"/>
<path d="M232.812 307.45H227.561V313.484H232.812V307.45Z" fill="#F0F0F0"/>
<path d="M232.812 317.562H227.561V323.595H232.812V317.562Z" fill="#F0F0F0"/>
<path d="M241.133 256.953H235.882V262.986H241.133V256.953Z" fill="#F0F0F0"/>
<path d="M241.133 267.065H235.882V273.098H241.133V267.065Z" fill="#F0F0F0"/>
<path d="M241.133 277.156H235.882V283.189H241.133V277.156Z" fill="#F0F0F0"/>
<path d="M241.133 287.269H235.882V293.302H241.133V287.269Z" fill="#F0F0F0"/>
<path d="M241.133 297.359H235.882V303.393H241.133V297.359Z" fill="#F0F0F0"/>
<path d="M241.133 307.45H235.882V313.484H241.133V307.45Z" fill="#F0F0F0"/>
<path d="M241.133 317.562H235.882V323.595H241.133V317.562Z" fill="#F0F0F0"/>
<path d="M249.473 256.953H244.222V262.986H249.473V256.953Z" fill="#F0F0F0"/>
<path d="M249.473 267.065H244.222V273.098H249.473V267.065Z" fill="#F0F0F0"/>
<path d="M249.473 277.156H244.222V283.189H249.473V277.156Z" fill="#F0F0F0"/>
<path d="M249.473 287.269H244.222V293.302H249.473V287.269Z" fill="#F0F0F0"/>
<path d="M249.473 297.359H244.222V303.393H249.473V297.359Z" fill="#F0F0F0"/>
<path d="M249.473 307.45H244.222V313.484H249.473V307.45Z" fill="#F0F0F0"/>
<path d="M249.473 317.562H244.222V323.595H249.473V317.562Z" fill="#F0F0F0"/>
<path d="M249.473 327.653H244.222V333.687H249.473V327.653Z" fill="#F0F0F0"/>
<path d="M249.473 337.765H244.222V343.798H249.473V337.765Z" fill="#F0F0F0"/>
<path d="M249.473 347.856H244.222V353.889H249.473V347.856Z" fill="#F0F0F0"/>
<path d="M249.473 357.947H244.222V363.98H249.473V357.947Z" fill="#F0F0F0"/>
<path d="M257.794 256.953H252.542V262.986H257.794V256.953Z" fill="#F0F0F0"/>
<path d="M257.794 267.065H252.542V273.098H257.794V267.065Z" fill="#F0F0F0"/>
<path d="M257.794 277.156H252.542V283.189H257.794V277.156Z" fill="#F0F0F0"/>
<path d="M257.794 287.269H252.542V293.302H257.794V287.269Z" fill="#F0F0F0"/>
<path d="M257.794 297.359H252.542V303.393H257.794V297.359Z" fill="#F0F0F0"/>
<path d="M257.794 307.45H252.542V313.484H257.794V307.45Z" fill="#F0F0F0"/>
<path d="M257.794 317.562H252.542V323.595H257.794V317.562Z" fill="#F0F0F0"/>
<path d="M257.794 327.653H252.542V333.687H257.794V327.653Z" fill="#F0F0F0"/>
<path d="M257.794 337.765H252.542V343.798H257.794V337.765Z" fill="#F0F0F0"/>
<path d="M257.794 347.856H252.542V353.889H257.794V347.856Z" fill="#F0F0F0"/>
<path d="M257.794 357.947H252.542V363.98H257.794V357.947Z" fill="#F0F0F0"/>
<path d="M257.794 368.059H252.542V374.092H257.794V368.059Z" fill="#F0F0F0"/>
<path d="M257.794 398.353H252.542V404.386H257.794V398.353Z" fill="#F0F0F0"/>
<path d="M257.794 408.444H252.542V414.478H257.794V408.444Z" fill="#F0F0F0"/>
<path d="M266.134 256.953H260.883V262.986H266.134V256.953Z" fill="#F0F0F0"/>
<path d="M266.134 267.065H260.883V273.098H266.134V267.065Z" fill="#F0F0F0"/>
<path d="M266.134 277.156H260.883V283.189H266.134V277.156Z" fill="#F0F0F0"/>
<path d="M266.134 307.45H260.883V313.484H266.134V307.45Z" fill="#F0F0F0"/>
<path d="M266.134 317.562H260.883V323.595H266.134V317.562Z" fill="#F0F0F0"/>
<path d="M266.134 327.653H260.883V333.687H266.134V327.653Z" fill="#F0F0F0"/>
<path d="M266.134 337.765H260.883V343.798H266.134V337.765Z" fill="#F0F0F0"/>
<path d="M266.134 347.856H260.883V353.889H266.134V347.856Z" fill="#F0F0F0"/>
<path d="M266.134 357.947H260.883V363.98H266.134V357.947Z" fill="#F0F0F0"/>
<path d="M266.134 368.059H260.883V374.092H266.134V368.059Z" fill="#F0F0F0"/>
<path d="M266.134 398.353H260.883V404.386H266.134V398.353Z" fill="#F0F0F0"/>
<path d="M266.134 408.444H260.883V414.478H266.134V408.444Z" fill="#F0F0F0"/>
<path d="M266.134 418.556H260.883V424.589H266.134V418.556Z" fill="#F0F0F0"/>
<path d="M353.412 196.365H348.16V202.398H353.412V196.365Z" fill="#F0F0F0"/>
<path d="M353.412 206.457H348.16V212.49H353.412V206.457Z" fill="#F0F0F0"/>
<path d="M353.412 216.568H348.16V222.602H353.412V216.568Z" fill="#F0F0F0"/>
<path d="M353.412 226.66H348.16V232.693H353.412V226.66Z" fill="#F0F0F0"/>
<path d="M353.412 236.771H348.16V242.805H353.412V236.771Z" fill="#F0F0F0"/>
<path d="M353.412 246.862H348.16V252.896H353.412V246.862Z" fill="#F0F0F0"/>
<path d="M353.412 256.953H348.16V262.986H353.412V256.953Z" fill="#F0F0F0"/>
<path d="M353.412 267.065H348.16V273.098H353.412V267.065Z" fill="#F0F0F0"/>
<path d="M353.412 277.156H348.16V283.189H353.412V277.156Z" fill="#F0F0F0"/>
<path d="M353.412 287.269H348.16V293.302H353.412V287.269Z" fill="#F0F0F0"/>
<path d="M353.412 297.359H348.16V303.393H353.412V297.359Z" fill="#F0F0F0"/>
<path d="M353.412 307.45H348.16V313.484H353.412V307.45Z" fill="#F0F0F0"/>
<path d="M353.412 317.562H348.16V323.595H353.412V317.562Z" fill="#F0F0F0"/>
<path d="M353.412 327.653H348.16V333.687H353.412V327.653Z" fill="#F0F0F0"/>
<path d="M353.412 337.765H348.16V343.798H353.412V337.765Z" fill="#F0F0F0"/>
<path d="M353.412 347.856H348.16V353.889H353.412V347.856Z" fill="#F0F0F0"/>
<path d="M353.412 357.947H348.16V363.98H353.412V357.947Z" fill="#F0F0F0"/>
<path d="M353.412 368.059H348.16V374.092H353.412V368.059Z" fill="#F0F0F0"/>
<path d="M353.412 378.149H348.16V384.183H353.412V378.149Z" fill="#F0F0F0"/>
<path d="M353.412 388.262H348.16V394.295H353.412V388.262Z" fill="#F0F0F0"/>
<path d="M353.412 398.353H348.16V404.386H353.412V398.353Z" fill="#F0F0F0"/>
<path d="M353.412 408.444H348.16V414.478H353.412V408.444Z" fill="#F0F0F0"/>
<path d="M353.412 418.556H348.16V424.589H353.412V418.556Z" fill="#F0F0F0"/>
<path d="M361.751 196.365H356.499V202.398H361.751V196.365Z" fill="#F0F0F0"/>
<path d="M361.751 206.457H356.499V212.49H361.751V206.457Z" fill="#F0F0F0"/>
<path d="M361.751 216.568H356.499V222.602H361.751V216.568Z" fill="#F0F0F0"/>
<path d="M361.751 226.66H356.499V232.693H361.751V226.66Z" fill="#F0F0F0"/>
<path d="M361.751 236.771H356.499V242.805H361.751V236.771Z" fill="#F0F0F0"/>
<path d="M361.751 246.862H356.499V252.896H361.751V246.862Z" fill="#F0F0F0"/>
<path d="M361.751 256.953H356.499V262.986H361.751V256.953Z" fill="#F0F0F0"/>
<path d="M361.751 267.065H356.499V273.098H361.751V267.065Z" fill="#F0F0F0"/>
<path d="M361.751 277.156H356.499V283.189H361.751V277.156Z" fill="#F0F0F0"/>
<path d="M361.751 287.269H356.499V293.302H361.751V287.269Z" fill="#F0F0F0"/>
<path d="M361.751 297.359H356.499V303.393H361.751V297.359Z" fill="#F0F0F0"/>
<path d="M361.751 307.45H356.499V313.484H361.751V307.45Z" fill="#F0F0F0"/>
<path d="M361.751 317.562H356.499V323.595H361.751V317.562Z" fill="#F0F0F0"/>
<path d="M361.751 327.653H356.499V333.687H361.751V327.653Z" fill="#F0F0F0"/>
<path d="M361.751 337.765H356.499V343.798H361.751V337.765Z" fill="#F0F0F0"/>
<path d="M361.751 347.856H356.499V353.889H361.751V347.856Z" fill="#F0F0F0"/>
<path d="M361.751 357.947H356.499V363.98H361.751V357.947Z" fill="#F0F0F0"/>
<path d="M361.751 368.059H356.499V374.092H361.751V368.059Z" fill="#F0F0F0"/>
<path d="M361.751 378.149H356.499V384.183H361.751V378.149Z" fill="#F0F0F0"/>
<path d="M370.072 196.365H364.82V202.398H370.072V196.365Z" fill="#F0F0F0"/>
<path d="M370.072 206.457H364.82V212.49H370.072V206.457Z" fill="#F0F0F0"/>
<path d="M370.072 216.568H364.82V222.602H370.072V216.568Z" fill="#F0F0F0"/>
<path d="M370.072 226.66H364.82V232.693H370.072V226.66Z" fill="#F0F0F0"/>
<path d="M370.072 236.771H364.82V242.805H370.072V236.771Z" fill="#F0F0F0"/>
<path d="M370.072 246.862H364.82V252.896H370.072V246.862Z" fill="#F0F0F0"/>
<path d="M370.072 256.953H364.82V262.986H370.072V256.953Z" fill="#F0F0F0"/>
<path d="M370.072 267.065H364.82V273.098H370.072V267.065Z" fill="#F0F0F0"/>
<path d="M370.072 277.156H364.82V283.189H370.072V277.156Z" fill="#F0F0F0"/>
<path d="M370.072 287.269H364.82V293.302H370.072V287.269Z" fill="#F0F0F0"/>
<path d="M370.072 297.359H364.82V303.393H370.072V297.359Z" fill="#F0F0F0"/>
<path d="M370.072 307.45H364.82V313.484H370.072V307.45Z" fill="#F0F0F0"/>
<path d="M370.072 317.562H364.82V323.595H370.072V317.562Z" fill="#F0F0F0"/>
<path d="M370.072 327.653H364.82V333.687H370.072V327.653Z" fill="#F0F0F0"/>
<path d="M370.072 337.765H364.82V343.798H370.072V337.765Z" fill="#F0F0F0"/>
<path d="M370.072 347.856H364.82V353.889H370.072V347.856Z" fill="#F0F0F0"/>
<path d="M370.072 357.947H364.82V363.98H370.072V357.947Z" fill="#F0F0F0"/>
<path d="M370.072 368.059H364.82V374.092H370.072V368.059Z" fill="#F0F0F0"/>
<path d="M370.072 378.149H364.82V384.183H370.072V378.149Z" fill="#F0F0F0"/>
<path d="M378.394 196.365H373.143V202.398H378.394V196.365Z" fill="#F0F0F0"/>
<path d="M378.394 206.457H373.143V212.49H378.394V206.457Z" fill="#F0F0F0"/>
<path d="M378.394 216.568H373.143V222.602H378.394V216.568Z" fill="#F0F0F0"/>
<path d="M378.394 226.66H373.143V232.693H378.394V226.66Z" fill="#F0F0F0"/>
<path d="M378.394 236.771H373.143V242.805H378.394V236.771Z" fill="#F0F0F0"/>
<path d="M378.394 246.862H373.143V252.896H378.394V246.862Z" fill="#F0F0F0"/>
<path d="M378.394 256.953H373.143V262.986H378.394V256.953Z" fill="#F0F0F0"/>
<path d="M378.394 267.065H373.143V273.098H378.394V267.065Z" fill="#F0F0F0"/>
<path d="M378.394 277.156H373.143V283.189H378.394V277.156Z" fill="#F0F0F0"/>
<path d="M378.394 287.269H373.143V293.302H378.394V287.269Z" fill="#F0F0F0"/>
<path d="M378.394 297.359H373.143V303.393H378.394V297.359Z" fill="#F0F0F0"/>
<path d="M378.394 307.45H373.143V313.484H378.394V307.45Z" fill="#F0F0F0"/>
<path d="M378.394 317.562H373.143V323.595H378.394V317.562Z" fill="#F0F0F0"/>
<path d="M378.394 327.653H373.143V333.687H378.394V327.653Z" fill="#F0F0F0"/>
<path d="M378.394 337.765H373.143V343.798H378.394V337.765Z" fill="#F0F0F0"/>
<path d="M70.8833 264.048H65.6318V270.082H70.8833V264.048Z" fill="#F0F0F0"/>
<path d="M70.8833 274.139H65.6318V280.172H70.8833V274.139Z" fill="#F0F0F0"/>
<path d="M70.8833 284.252H65.6318V290.285H70.8833V284.252Z" fill="#F0F0F0"/>
<path d="M70.8833 294.342H65.6318V300.375H70.8833V294.342Z" fill="#F0F0F0"/>
<path d="M70.8833 304.455H65.6318V310.488H70.8833V304.455Z" fill="#F0F0F0"/>
<path d="M70.8833 314.545H65.6318V320.579H70.8833V314.545Z" fill="#F0F0F0"/>
<path d="M70.8833 324.636H65.6318V330.67H70.8833V324.636Z" fill="#F0F0F0"/>
<path d="M70.8833 334.748H65.6318V340.781H70.8833V334.748Z" fill="#F0F0F0"/>
<path d="M70.8833 344.839H65.6318V350.873H70.8833V344.839Z" fill="#F0F0F0"/>
<path d="M70.8833 354.952H65.6318V360.985H70.8833V354.952Z" fill="#F0F0F0"/>
<path d="M70.8833 365.042H65.6318V371.076H70.8833V365.042Z" fill="#F0F0F0"/>
<path d="M70.8833 375.134H65.6318V381.167H70.8833V375.134Z" fill="#F0F0F0"/>
<path d="M70.8833 385.246H65.6318V391.279H70.8833V385.246Z" fill="#F0F0F0"/>
<path d="M70.8833 405.448H65.6318V411.482H70.8833V405.448Z" fill="#F0F0F0"/>
<path d="M70.8833 415.539H65.6318V421.572H70.8833V415.539Z" fill="#F0F0F0"/>
<path d="M70.8833 425.651H65.6318V431.685H70.8833V425.651Z" fill="#F0F0F0"/>
<path d="M70.8833 435.742H65.6318V441.775H70.8833V435.742Z" fill="#F0F0F0"/>
<path d="M79.2046 264.048H73.9531V270.082H79.2046V264.048Z" fill="#F0F0F0"/>
<path d="M79.2046 274.139H73.9531V280.172H79.2046V274.139Z" fill="#F0F0F0"/>
<path d="M79.2046 284.252H73.9531V290.285H79.2046V284.252Z" fill="#F0F0F0"/>
<path d="M79.2046 294.342H73.9531V300.375H79.2046V294.342Z" fill="#F0F0F0"/>
<path d="M79.2046 304.455H73.9531V310.488H79.2046V304.455Z" fill="#F0F0F0"/>
<path d="M79.2046 314.545H73.9531V320.579H79.2046V314.545Z" fill="#F0F0F0"/>
<path d="M79.2046 324.636H73.9531V330.67H79.2046V324.636Z" fill="#F0F0F0"/>
<path d="M79.2046 334.748H73.9531V340.781H79.2046V334.748Z" fill="#F0F0F0"/>
<path d="M79.2046 344.839H73.9531V350.873H79.2046V344.839Z" fill="#F0F0F0"/>
<path d="M79.2046 354.952H73.9531V360.985H79.2046V354.952Z" fill="#F0F0F0"/>
<path d="M79.2046 365.042H73.9531V371.076H79.2046V365.042Z" fill="#F0F0F0"/>
<path d="M79.2046 375.134H73.9531V381.167H79.2046V375.134Z" fill="#F0F0F0"/>
<path d="M79.2046 385.246H73.9531V391.279H79.2046V385.246Z" fill="#F0F0F0"/>
<path d="M79.2046 415.539H73.9531V421.572H79.2046V415.539Z" fill="#F0F0F0"/>
<path d="M79.2046 425.651H73.9531V431.685H79.2046V425.651Z" fill="#F0F0F0"/>
<path d="M87.5251 264.048H82.2736V270.082H87.5251V264.048Z" fill="#F0F0F0"/>
<path d="M87.5251 274.139H82.2736V280.172H87.5251V274.139Z" fill="#F0F0F0"/>
<path d="M87.5251 284.252H82.2736V290.285H87.5251V284.252Z" fill="#F0F0F0"/>
<path d="M87.5251 294.342H82.2736V300.375H87.5251V294.342Z" fill="#F0F0F0"/>
<path d="M87.5251 304.455H82.2736V310.488H87.5251V304.455Z" fill="#F0F0F0"/>
<path d="M87.5251 314.545H82.2736V320.579H87.5251V314.545Z" fill="#F0F0F0"/>
<path d="M87.5251 324.636H82.2736V330.67H87.5251V324.636Z" fill="#F0F0F0"/>
<path d="M87.5251 334.748H82.2736V340.781H87.5251V334.748Z" fill="#F0F0F0"/>
<path d="M87.5251 344.839H82.2736V350.873H87.5251V344.839Z" fill="#F0F0F0"/>
<path d="M87.5251 354.952H82.2736V360.985H87.5251V354.952Z" fill="#F0F0F0"/>
<path d="M87.5251 365.042H82.2736V371.076H87.5251V365.042Z" fill="#F0F0F0"/>
<path d="M87.5251 375.134H82.2736V381.167H87.5251V375.134Z" fill="#F0F0F0"/>
<path d="M87.5251 385.246H82.2736V391.279H87.5251V385.246Z" fill="#F0F0F0"/>
<path d="M87.5251 395.336H82.2736V401.37H87.5251V395.336Z" fill="#F0F0F0"/>
<path d="M87.5251 415.539H82.2736V421.572H87.5251V415.539Z" fill="#F0F0F0"/>
<path d="M87.5251 435.742H82.2736V441.775H87.5251V435.742Z" fill="#F0F0F0"/>
<path d="M36.9526 321.641H31.7011V327.674H36.9526V321.641Z" fill="#F0F0F0"/>
<path d="M36.9526 331.732H31.7011V337.766H36.9526V331.732Z" fill="#F0F0F0"/>
<path d="M36.9526 341.844H31.7011V347.877H36.9526V341.844Z" fill="#F0F0F0"/>
<path d="M36.9526 351.935H31.7011V357.968H36.9526V351.935Z" fill="#F0F0F0"/>
<path d="M36.9526 362.025H31.7011V368.059H36.9526V362.025Z" fill="#F0F0F0"/>
<path d="M36.9526 372.138H31.7011V378.171H36.9526V372.138Z" fill="#F0F0F0"/>
<path d="M36.9527 402.432H31.7012V408.465H36.9527V402.432Z" fill="#F0F0F0"/>
<path d="M36.9527 412.522H31.7012V418.556H36.9527V412.522Z" fill="#F0F0F0"/>
<path d="M36.9526 422.635H31.7011V428.669H36.9526V422.635Z" fill="#F0F0F0"/>
<path d="M36.9526 432.726H31.7011V438.759H36.9526V432.726Z" fill="#F0F0F0"/>
<path d="M45.2741 321.641H40.0226V327.674H45.2741V321.641Z" fill="#F0F0F0"/>
<path d="M45.2741 331.732H40.0226V337.766H45.2741V331.732Z" fill="#F0F0F0"/>
<path d="M45.2741 341.844H40.0226V347.877H45.2741V341.844Z" fill="#F0F0F0"/>
<path d="M45.2741 351.935H40.0226V357.968H45.2741V351.935Z" fill="#F0F0F0"/>
<path d="M45.2741 362.025H40.0226V368.059H45.2741V362.025Z" fill="#F0F0F0"/>
<path d="M45.2741 372.138H40.0226V378.171H45.2741V372.138Z" fill="#F0F0F0"/>
<path d="M45.274 402.432H40.0225V408.465H45.274V402.432Z" fill="#F0F0F0"/>
<path d="M45.274 412.522H40.0225V418.556H45.274V412.522Z" fill="#F0F0F0"/>
<path d="M45.2741 422.635H40.0226V428.669H45.2741V422.635Z" fill="#F0F0F0"/>
<path d="M45.2741 432.726H40.0226V438.759H45.2741V432.726Z" fill="#F0F0F0"/>
<path d="M321.959 277.156H316.708V283.189H321.959V277.156Z" fill="#F0F0F0"/>
<path d="M321.959 287.269H316.708V293.302H321.959V287.269Z" fill="#F0F0F0"/>
<path d="M321.959 297.359H316.708V303.393H321.959V297.359Z" fill="#F0F0F0"/>
<path d="M321.959 307.45H316.708V313.484H321.959V307.45Z" fill="#F0F0F0"/>
<path d="M321.959 317.562H316.708V323.595H321.959V317.562Z" fill="#F0F0F0"/>
<path d="M321.959 327.653H316.708V333.687H321.959V327.653Z" fill="#F0F0F0"/>
<path d="M321.959 337.765H316.708V343.798H321.959V337.765Z" fill="#F0F0F0"/>
<path d="M321.959 347.856H316.708V353.889H321.959V347.856Z" fill="#F0F0F0"/>
<path d="M321.959 357.947H316.708V363.98H321.959V357.947Z" fill="#F0F0F0"/>
<path d="M321.959 368.059H316.708V374.092H321.959V368.059Z" fill="#F0F0F0"/>
<path d="M321.96 378.149H316.708V384.183H321.96V378.149Z" fill="#F0F0F0"/>
<path d="M321.959 398.353H316.708V404.386H321.959V398.353Z" fill="#F0F0F0"/>
<path d="M321.96 408.444H316.708V414.478H321.96V408.444Z" fill="#F0F0F0"/>
<path d="M321.96 418.556H316.708V424.589H321.96V418.556Z" fill="#F0F0F0"/>
<path d="M321.959 428.646H316.708V434.68H321.959V428.646Z" fill="#F0F0F0"/>
<path d="M330.28 277.156H325.028V283.189H330.28V277.156Z" fill="#F0F0F0"/>
<path d="M330.28 287.269H325.028V293.302H330.28V287.269Z" fill="#F0F0F0"/>
<path d="M330.28 297.359H325.028V303.393H330.28V297.359Z" fill="#F0F0F0"/>
<path d="M330.28 307.45H325.028V313.484H330.28V307.45Z" fill="#F0F0F0"/>
<path d="M330.28 317.562H325.028V323.595H330.28V317.562Z" fill="#F0F0F0"/>
<path d="M330.28 327.653H325.028V333.687H330.28V327.653Z" fill="#F0F0F0"/>
<path d="M330.28 337.765H325.028V343.798H330.28V337.765Z" fill="#F0F0F0"/>
<path d="M330.28 347.856H325.028V353.889H330.28V347.856Z" fill="#F0F0F0"/>
<path d="M330.28 357.947H325.028V363.98H330.28V357.947Z" fill="#F0F0F0"/>
<path d="M330.28 368.059H325.028V374.092H330.28V368.059Z" fill="#F0F0F0"/>
<path d="M330.28 378.149H325.028V384.183H330.28V378.149Z" fill="#F0F0F0"/>
<path d="M330.28 388.262H325.028V394.295H330.28V388.262Z" fill="#F0F0F0"/>
<path d="M330.28 398.353H325.028V404.386H330.28V398.353Z" fill="#F0F0F0"/>
<path d="M330.28 408.444H325.028V414.478H330.28V408.444Z" fill="#F0F0F0"/>
<path d="M330.28 418.556H325.028V424.589H330.28V418.556Z" fill="#F0F0F0"/>
<path d="M330.28 428.646H325.028V434.68H330.28V428.646Z" fill="#F0F0F0"/>
<path d="M280.927 316.5H275.676V322.533H280.927V316.5Z" fill="#F0F0F0"/>
<path d="M280.927 326.591H275.676V332.625H280.927V326.591Z" fill="#F0F0F0"/>
<path d="M280.927 336.703H275.676V342.736H280.927V336.703Z" fill="#F0F0F0"/>
<path d="M280.927 346.794H275.676V352.827H280.927V346.794Z" fill="#F0F0F0"/>
<path d="M280.927 356.885H275.676V362.918H280.927V356.885Z" fill="#F0F0F0"/>
<path d="M280.927 366.997H275.676V373.03H280.927V366.997Z" fill="#F0F0F0"/>
<path d="M280.927 377.088H275.676V383.121H280.927V377.088Z" fill="#F0F0F0"/>
<path d="M280.927 387.2H275.676V393.233H280.927V387.2Z" fill="#F0F0F0"/>
<path d="M280.927 397.291H275.676V403.324H280.927V397.291Z" fill="#F0F0F0"/>
<path d="M280.927 407.382H275.676V413.416H280.927V407.382Z" fill="#F0F0F0"/>
<path d="M289.266 316.5H284.015V322.533H289.266V316.5Z" fill="#F0F0F0"/>
<path d="M289.266 326.591H284.015V332.625H289.266V326.591Z" fill="#F0F0F0"/>
<path d="M289.266 336.703H284.015V342.736H289.266V336.703Z" fill="#F0F0F0"/>
<path d="M289.266 346.794H284.015V352.827H289.266V346.794Z" fill="#F0F0F0"/>
<path d="M289.266 356.885H284.015V362.918H289.266V356.885Z" fill="#F0F0F0"/>
<path d="M289.266 366.997H284.015V373.03H289.266V366.997Z" fill="#F0F0F0"/>
<path d="M289.266 377.088H284.015V383.121H289.266V377.088Z" fill="#F0F0F0"/>
<path d="M289.266 387.2H284.015V393.233H289.266V387.2Z" fill="#F0F0F0"/>
<path d="M289.266 397.291H284.015V403.324H289.266V397.291Z" fill="#F0F0F0"/>
</g>
</g>
<defs>
<linearGradient id="paint0_linear_1605_55099" x1="73.0456" y1="60" x2="73.0456" y2="502.406" gradientUnits="userSpaceOnUse">
<stop offset="0.71875" stop-color="#C6CACC"/>
<stop offset="1" stop-color="white" stop-opacity="0"/>
</linearGradient>
<clipPath id="clip0_1605_55099">
<rect width="375" height="436" fill="white"/>
</clipPath>
</defs>
</svg>
