<svg width="375" height="100" viewBox="0 0 375 100" fill="none" xmlns="http://www.w3.org/2000/svg">
<g clip-path="url(#clip0_1605_55854)">
<rect width="375" height="100" fill="white"/>
<g opacity="0.3">
<path d="M375.909 184.406V135.527H371.881V112.236H366.006V31.2561H357.509V20.8059L339.371 12.0158V1.48216H336.86V31.2561H333.334V112.236H329.819V69.6531H320.268V47.7089H317.606V112.236H310.355V87.6824H305.574V81.4081H294.516V59.986H288.46V44.838H281.018V22.7686H278.366V44.838H270.924V59.986H264.868V81.4081H253.81V87.6824H249.029V112.236H243.375V81.4081H232.317V15.0641H228.791V7.74595H205.169V15.0641H200.147V63.1283H180.04V67.8261H172.508V71.48H180.04V90.2923H158.929V27.6022H154.409V14.2812H144.607V-33H141.845V14.2812H134.804V27.6022H93.5554V23.2175H91.0445V52.9914H87.5293V53.5134H85.4101V83.2977H81.8949V91.3884H74.4526V69.4547H71.7911V121.695H68.8282V99.7506H66.1567V133.972H64.5397V109.418H59.769V103.143H48.7111V81.7213H42.6548V66.5734H35.2126V44.504H32.551V66.5734H25.1088V81.7213H19.0526V103.143H7.99464V109.418H3.22397V133.45H2.36023V133.972H0V184.406H375.909Z" fill="#C6CACC"/>
<path d="M119.428 30.5244H116.576V33.4893H119.428V30.5244Z" fill="#F0F0F0"/>
<path d="M119.428 35.4941H116.576V38.459H119.428V35.4941Z" fill="#F0F0F0"/>
<path d="M119.428 55.3398H116.576V58.3047H119.428V55.3398Z" fill="#F0F0F0"/>
<path d="M119.428 60.3096H116.576V63.2744H119.428V60.3096Z" fill="#F0F0F0"/>
<path d="M119.428 65.2686H116.576V68.2334H119.428V65.2686Z" fill="#F0F0F0"/>
<path d="M119.428 80.1553H116.576V83.1201H119.428V80.1553Z" fill="#F0F0F0"/>
<path d="M119.428 85.124H116.576V88.0889H119.428V85.124Z" fill="#F0F0F0"/>
<path d="M123.948 50.3809H121.095V53.3457H123.948V50.3809Z" fill="#F0F0F0"/>
<path d="M123.948 55.3398H121.095V58.3047H123.948V55.3398Z" fill="#F0F0F0"/>
<path d="M123.948 60.3086H121.095V63.2735H123.948V60.3086Z" fill="#F0F0F0"/>
<path d="M123.948 65.2676H121.095V68.2324H123.948V65.2676Z" fill="#F0F0F0"/>
<path d="M123.948 70.2373H121.095V73.2022H123.948V70.2373Z" fill="#F0F0F0"/>
<path d="M123.948 80.1543H121.095V83.1192H123.948V80.1543Z" fill="#F0F0F0"/>
<path d="M123.948 85.125H121.095V88.0899H123.948V85.125Z" fill="#F0F0F0"/>
<path d="M128.477 30.5254H125.625V33.4902H128.477V30.5254Z" fill="#F0F0F0"/>
<path d="M128.477 35.4941H125.625V38.459H128.477V35.4941Z" fill="#F0F0F0"/>
<path d="M128.477 40.4531H125.625V43.418H128.477V40.4531Z" fill="#F0F0F0"/>
<path d="M128.477 45.4219H125.625V48.3867H128.477V45.4219Z" fill="#F0F0F0"/>
<path d="M128.477 50.3809H125.625V53.3457H128.477V50.3809Z" fill="#F0F0F0"/>
<path d="M128.477 55.3398H125.625V58.3047H128.477V55.3398Z" fill="#F0F0F0"/>
<path d="M128.477 60.3086H125.625V63.2735H128.477V60.3086Z" fill="#F0F0F0"/>
<path d="M128.477 65.2676H125.625V68.2324H128.477V65.2676Z" fill="#F0F0F0"/>
<path d="M128.477 70.2373H125.625V73.2022H128.477V70.2373Z" fill="#F0F0F0"/>
<path d="M128.477 75.1963H125.625V78.1611H128.477V75.1963Z" fill="#F0F0F0"/>
<path d="M128.477 85.125H125.625V88.0899H128.477V85.125Z" fill="#F0F0F0"/>
<path d="M132.997 30.5254H130.144V33.4902H132.997V30.5254Z" fill="#F0F0F0"/>
<path d="M132.997 35.4941H130.144V38.459H132.997V35.4941Z" fill="#F0F0F0"/>
<path d="M132.997 40.4531H130.144V43.418H132.997V40.4531Z" fill="#F0F0F0"/>
<path d="M132.997 45.4219H130.144V48.3867H132.997V45.4219Z" fill="#F0F0F0"/>
<path d="M132.997 50.3809H130.144V53.3457H132.997V50.3809Z" fill="#F0F0F0"/>
<path d="M132.997 55.3398H130.144V58.3047H132.997V55.3398Z" fill="#F0F0F0"/>
<path d="M132.997 60.3086H130.144V63.2735H132.997V60.3086Z" fill="#F0F0F0"/>
<path d="M137.517 30.5244H134.665V33.4893H137.517V30.5244Z" fill="#F0F0F0"/>
<path d="M137.517 35.4941H134.665V38.459H137.517V35.4941Z" fill="#F0F0F0"/>
<path d="M137.517 40.4531H134.665V43.418H137.517V40.4531Z" fill="#F0F0F0"/>
<path d="M137.517 45.4229H134.665V48.3877H137.517V45.4229Z" fill="#F0F0F0"/>
<path d="M137.517 50.3809H134.665V53.3457H137.517V50.3809Z" fill="#F0F0F0"/>
<path d="M137.517 55.3398H134.665V58.3047H137.517V55.3398Z" fill="#F0F0F0"/>
<path d="M137.517 60.3096H134.665V63.2744H137.517V60.3096Z" fill="#F0F0F0"/>
<path d="M137.517 65.2686H134.665V68.2334H137.517V65.2686Z" fill="#F0F0F0"/>
<path d="M137.517 95.0527H134.665V98.0176H137.517V95.0527Z" fill="#F0F0F0"/>
<path d="M142.046 30.5244H139.194V33.4893H142.046V30.5244Z" fill="#F0F0F0"/>
<path d="M142.046 35.4941H139.194V38.459H142.046V35.4941Z" fill="#F0F0F0"/>
<path d="M142.046 40.4531H139.194V43.418H142.046V40.4531Z" fill="#F0F0F0"/>
<path d="M142.046 45.4229H139.194V48.3877H142.046V45.4229Z" fill="#F0F0F0"/>
<path d="M142.046 50.3809H139.194V53.3457H142.046V50.3809Z" fill="#F0F0F0"/>
<path d="M142.046 55.3398H139.194V58.3047H142.046V55.3398Z" fill="#F0F0F0"/>
<path d="M142.046 60.3096H139.194V63.2744H142.046V60.3096Z" fill="#F0F0F0"/>
<path d="M142.046 65.2686H139.194V68.2334H142.046V65.2686Z" fill="#F0F0F0"/>
<path d="M142.046 70.2373H139.194V73.2022H142.046V70.2373Z" fill="#F0F0F0"/>
<path d="M142.046 75.1963H139.194V78.1611H142.046V75.1963Z" fill="#F0F0F0"/>
<path d="M142.046 90.083H139.194V93.0479H142.046V90.083Z" fill="#F0F0F0"/>
<path d="M142.046 95.0527H139.194V98.0176H142.046V95.0527Z" fill="#F0F0F0"/>
<path d="M146.566 30.5244H143.714V33.4893H146.566V30.5244Z" fill="#F0F0F0"/>
<path d="M146.566 35.4941H143.714V38.459H146.566V35.4941Z" fill="#F0F0F0"/>
<path d="M146.566 40.4531H143.714V43.418H146.566V40.4531Z" fill="#F0F0F0"/>
<path d="M146.566 45.4229H143.714V48.3877H146.566V45.4229Z" fill="#F0F0F0"/>
<path d="M146.566 50.3809H143.714V53.3457H146.566V50.3809Z" fill="#F0F0F0"/>
<path d="M146.566 55.3398H143.714V58.3047H146.566V55.3398Z" fill="#F0F0F0"/>
<path d="M146.566 60.3096H143.714V63.2744H146.566V60.3096Z" fill="#F0F0F0"/>
<path d="M146.566 65.2686H143.714V68.2334H146.566V65.2686Z" fill="#F0F0F0"/>
<path d="M146.566 70.2373H143.714V73.2022H146.566V70.2373Z" fill="#F0F0F0"/>
<path d="M146.566 75.1963H143.714V78.1611H146.566V75.1963Z" fill="#F0F0F0"/>
<path d="M146.566 80.1553H143.714V83.1201H146.566V80.1553Z" fill="#F0F0F0"/>
<path d="M146.566 85.124H143.714V88.0889H146.566V85.124Z" fill="#F0F0F0"/>
<path d="M146.566 90.083H143.714V93.0479H146.566V90.083Z" fill="#F0F0F0"/>
<path d="M146.566 95.0527H143.714V98.0176H146.566V95.0527Z" fill="#F0F0F0"/>
<path d="M151.095 30.5244H148.243V33.4893H151.095V30.5244Z" fill="#F0F0F0"/>
<path d="M151.095 35.4941H148.243V38.459H151.095V35.4941Z" fill="#F0F0F0"/>
<path d="M151.095 40.4531H148.243V43.418H151.095V40.4531Z" fill="#F0F0F0"/>
<path d="M151.095 45.4229H148.243V48.3877H151.095V45.4229Z" fill="#F0F0F0"/>
<path d="M151.095 50.3809H148.243V53.3457H151.095V50.3809Z" fill="#F0F0F0"/>
<path d="M151.095 55.3398H148.243V58.3047H151.095V55.3398Z" fill="#F0F0F0"/>
<path d="M151.095 60.3096H148.243V63.2744H151.095V60.3096Z" fill="#F0F0F0"/>
<path d="M151.095 65.2686H148.243V68.2334H151.095V65.2686Z" fill="#F0F0F0"/>
<path d="M151.095 70.2373H148.243V73.2022H151.095V70.2373Z" fill="#F0F0F0"/>
<path d="M151.095 75.1963H148.243V78.1611H151.095V75.1963Z" fill="#F0F0F0"/>
<path d="M151.095 90.083H148.243V93.0479H151.095V90.083Z" fill="#F0F0F0"/>
<path d="M151.095 95.0527H148.243V98.0176H151.095V95.0527Z" fill="#F0F0F0"/>
<path d="M155.615 30.5254H152.762V33.4902H155.615V30.5254Z" fill="#F0F0F0"/>
<path d="M155.615 35.4941H152.762V38.459H155.615V35.4941Z" fill="#F0F0F0"/>
<path d="M155.615 40.4531H152.762V43.418H155.615V40.4531Z" fill="#F0F0F0"/>
<path d="M155.615 45.4219H152.762V48.3867H155.615V45.4219Z" fill="#F0F0F0"/>
<path d="M155.615 50.3809H152.762V53.3457H155.615V50.3809Z" fill="#F0F0F0"/>
<path d="M155.615 55.3398H152.762V58.3047H155.615V55.3398Z" fill="#F0F0F0"/>
<path d="M155.615 60.3086H152.762V63.2735H155.615V60.3086Z" fill="#F0F0F0"/>
<path d="M155.615 65.2676H152.762V68.2324H155.615V65.2676Z" fill="#F0F0F0"/>
<path d="M155.615 70.2373H152.762V73.2022H155.615V70.2373Z" fill="#F0F0F0"/>
<path d="M155.615 75.1963H152.762V78.1611H155.615V75.1963Z" fill="#F0F0F0"/>
<path d="M155.615 90.084H152.762V93.0489H155.615V90.084Z" fill="#F0F0F0"/>
<path d="M155.615 95.0527H152.762V98.0176H155.615V95.0527Z" fill="#F0F0F0"/>
<path d="M206.546 17.6426H203.693V20.6075H206.546V17.6426Z" fill="#F0F0F0"/>
<path d="M206.545 22.6016H203.693V25.5664H206.545V22.6016Z" fill="#F0F0F0"/>
<path d="M206.545 27.5703H203.693V30.5352H206.545V27.5703Z" fill="#F0F0F0"/>
<path d="M206.545 32.5293H203.693V35.4942H206.545V32.5293Z" fill="#F0F0F0"/>
<path d="M206.545 37.499H203.693V40.4639H206.545V37.499Z" fill="#F0F0F0"/>
<path d="M206.545 42.457H203.693V45.4219H206.545V42.457Z" fill="#F0F0F0"/>
<path d="M206.546 47.416H203.693V50.3809H206.546V47.416Z" fill="#F0F0F0"/>
<path d="M206.545 52.3857H203.693V55.3506H206.545V52.3857Z" fill="#F0F0F0"/>
<path d="M206.546 67.2725H203.693V70.2373H206.546V67.2725Z" fill="#F0F0F0"/>
<path d="M206.546 72.2314H203.693V75.1963H206.546V72.2314Z" fill="#F0F0F0"/>
<path d="M211.066 17.6426H208.214V20.6075H211.066V17.6426Z" fill="#F0F0F0"/>
<path d="M211.066 22.6016H208.214V25.5664H211.066V22.6016Z" fill="#F0F0F0"/>
<path d="M211.066 27.5703H208.214V30.5352H211.066V27.5703Z" fill="#F0F0F0"/>
<path d="M211.066 32.5293H208.214V35.4942H211.066V32.5293Z" fill="#F0F0F0"/>
<path d="M211.066 37.498H208.214V40.4629H211.066V37.498Z" fill="#F0F0F0"/>
<path d="M211.066 42.457H208.214V45.4219H211.066V42.457Z" fill="#F0F0F0"/>
<path d="M211.066 47.416H208.214V50.3809H211.066V47.416Z" fill="#F0F0F0"/>
<path d="M211.066 52.3848H208.214V55.3496H211.066V52.3848Z" fill="#F0F0F0"/>
<path d="M211.066 72.2314H208.214V75.1963H211.066V72.2314Z" fill="#F0F0F0"/>
<path d="M215.594 17.6426H212.742V20.6075H215.594V17.6426Z" fill="#F0F0F0"/>
<path d="M215.594 22.6016H212.742V25.5664H215.594V22.6016Z" fill="#F0F0F0"/>
<path d="M215.594 27.5703H212.742V30.5352H215.594V27.5703Z" fill="#F0F0F0"/>
<path d="M215.594 32.5293H212.742V35.4942H215.594V32.5293Z" fill="#F0F0F0"/>
<path d="M215.594 37.498H212.742V40.4629H215.594V37.498Z" fill="#F0F0F0"/>
<path d="M215.594 42.457H212.742V45.4219H215.594V42.457Z" fill="#F0F0F0"/>
<path d="M215.594 47.416H212.742V50.3809H215.594V47.416Z" fill="#F0F0F0"/>
<path d="M215.594 52.3848H212.742V55.3496H215.594V52.3848Z" fill="#F0F0F0"/>
<path d="M220.115 17.6426H217.262V20.6075H220.115V17.6426Z" fill="#F0F0F0"/>
<path d="M220.115 22.6016H217.262V25.5664H220.115V22.6016Z" fill="#F0F0F0"/>
<path d="M220.115 27.5703H217.262V30.5352H220.115V27.5703Z" fill="#F0F0F0"/>
<path d="M220.115 32.5293H217.262V35.4942H220.115V32.5293Z" fill="#F0F0F0"/>
<path d="M220.115 37.498H217.262V40.4629H220.115V37.498Z" fill="#F0F0F0"/>
<path d="M220.115 42.457H217.262V45.4219H220.115V42.457Z" fill="#F0F0F0"/>
<path d="M220.115 52.3848H217.262V55.3496H220.115V52.3848Z" fill="#F0F0F0"/>
<path d="M220.115 57.3438H217.262V60.3086H220.115V57.3438Z" fill="#F0F0F0"/>
<path d="M220.115 72.2314H217.262V75.1963H220.115V72.2314Z" fill="#F0F0F0"/>
<path d="M220.115 77.2012H217.262V80.166H220.115V77.2012Z" fill="#F0F0F0"/>
<path d="M220.115 82.1592H217.262V85.124H220.115V82.1592Z" fill="#F0F0F0"/>
<path d="M220.115 87.1289H217.262V90.0938H220.115V87.1289Z" fill="#F0F0F0"/>
<path d="M220.115 92.0879H217.262V95.0527H220.115V92.0879Z" fill="#F0F0F0"/>
<path d="M220.115 97.0469H217.262V100.012H220.115V97.0469Z" fill="#F0F0F0"/>
<path d="M224.634 17.6426H221.782V20.6075H224.634V17.6426Z" fill="#F0F0F0"/>
<path d="M224.634 22.6016H221.782V25.5664H224.634V22.6016Z" fill="#F0F0F0"/>
<path d="M224.634 27.5703H221.782V30.5352H224.634V27.5703Z" fill="#F0F0F0"/>
<path d="M224.634 32.5293H221.782V35.4942H224.634V32.5293Z" fill="#F0F0F0"/>
<path d="M224.634 37.499H221.782V40.4639H224.634V37.499Z" fill="#F0F0F0"/>
<path d="M224.634 42.457H221.782V45.4219H224.634V42.457Z" fill="#F0F0F0"/>
<path d="M224.634 57.3438H221.782V60.3086H224.634V57.3438Z" fill="#F0F0F0"/>
<path d="M224.634 62.3135H221.782V65.2783H224.634V62.3135Z" fill="#F0F0F0"/>
<path d="M224.634 67.2725H221.782V70.2373H224.634V67.2725Z" fill="#F0F0F0"/>
<path d="M224.634 72.2314H221.782V75.1963H224.634V72.2314Z" fill="#F0F0F0"/>
<path d="M224.634 77.2002H221.782V80.1651H224.634V77.2002Z" fill="#F0F0F0"/>
<path d="M224.634 82.1592H221.782V85.124H224.634V82.1592Z" fill="#F0F0F0"/>
<path d="M224.634 87.1289H221.782V90.0938H224.634V87.1289Z" fill="#F0F0F0"/>
<path d="M224.634 92.0879H221.782V95.0527H224.634V92.0879Z" fill="#F0F0F0"/>
<path d="M224.634 97.0459H221.782V100.011H224.634V97.0459Z" fill="#F0F0F0"/>
<path d="M229.166 17.6426H226.313V20.6075H229.166V17.6426Z" fill="#F0F0F0"/>
<path d="M229.166 22.6016H226.313V25.5664H229.166V22.6016Z" fill="#F0F0F0"/>
<path d="M229.166 27.5703H226.313V30.5352H229.166V27.5703Z" fill="#F0F0F0"/>
<path d="M229.166 32.5293H226.313V35.4942H229.166V32.5293Z" fill="#F0F0F0"/>
<path d="M229.166 37.498H226.313V40.4629H229.166V37.498Z" fill="#F0F0F0"/>
<path d="M229.166 42.457H226.313V45.4219H229.166V42.457Z" fill="#F0F0F0"/>
<path d="M229.166 57.3438H226.313V60.3086H229.166V57.3438Z" fill="#F0F0F0"/>
<path d="M229.166 62.3145H226.313V65.2793H229.166V62.3145Z" fill="#F0F0F0"/>
<path d="M229.166 67.2725H226.313V70.2373H229.166V67.2725Z" fill="#F0F0F0"/>
<path d="M229.166 72.2314H226.313V75.1963H229.166V72.2314Z" fill="#F0F0F0"/>
<path d="M229.166 87.1289H226.313V90.0938H229.166V87.1289Z" fill="#F0F0F0"/>
<path d="M229.166 92.0879H226.313V95.0527H229.166V92.0879Z" fill="#F0F0F0"/>
<path d="M229.166 97.0469H226.313V100.012H229.166V97.0469Z" fill="#F0F0F0"/>
<path d="M270.212 63.7852H267.36V66.75H270.212V63.7852Z" fill="#F0F0F0"/>
<path d="M270.212 68.7549H267.36V71.7197H270.212V68.7549Z" fill="#F0F0F0"/>
<path d="M270.212 73.7139H267.36V76.6787H270.212V73.7139Z" fill="#F0F0F0"/>
<path d="M270.212 78.6836H267.36V81.6485H270.212V78.6836Z" fill="#F0F0F0"/>
<path d="M270.212 83.6426H267.36V86.6075H270.212V83.6426Z" fill="#F0F0F0"/>
<path d="M270.212 88.6006H267.36V91.5655H270.212V88.6006Z" fill="#F0F0F0"/>
<path d="M270.212 93.5703H267.36V96.5352H270.212V93.5703Z" fill="#F0F0F0"/>
<path d="M274.731 63.7861H271.879V66.751H274.731V63.7861Z" fill="#F0F0F0"/>
<path d="M274.731 68.7549H271.879V71.7197H274.731V68.7549Z" fill="#F0F0F0"/>
<path d="M274.731 73.7139H271.879V76.6787H274.731V73.7139Z" fill="#F0F0F0"/>
<path d="M274.731 78.6836H271.879V81.6485H274.731V78.6836Z" fill="#F0F0F0"/>
<path d="M274.731 83.6416H271.879V86.6065H274.731V83.6416Z" fill="#F0F0F0"/>
<path d="M274.731 88.6006H271.879V91.5655H274.731V88.6006Z" fill="#F0F0F0"/>
<path d="M274.731 93.5703H271.879V96.5352H274.731V93.5703Z" fill="#F0F0F0"/>
<path d="M279.251 63.7852H276.398V66.75H279.251V63.7852Z" fill="#F0F0F0"/>
<path d="M279.251 68.7549H276.398V71.7197H279.251V68.7549Z" fill="#F0F0F0"/>
<path d="M279.251 73.7139H276.398V76.6787H279.251V73.7139Z" fill="#F0F0F0"/>
<path d="M279.251 78.6836H276.398V81.6485H279.251V78.6836Z" fill="#F0F0F0"/>
<path d="M279.251 83.6426H276.398V86.6075H279.251V83.6426Z" fill="#F0F0F0"/>
<path d="M279.251 88.6006H276.398V91.5655H279.251V88.6006Z" fill="#F0F0F0"/>
<path d="M279.251 93.5703H276.398V96.5352H279.251V93.5703Z" fill="#F0F0F0"/>
<path d="M283.781 63.7861H280.928V66.751H283.781V63.7861Z" fill="#F0F0F0"/>
<path d="M283.781 68.7549H280.929V71.7197H283.781V68.7549Z" fill="#F0F0F0"/>
<path d="M283.781 73.7139H280.929V76.6787H283.781V73.7139Z" fill="#F0F0F0"/>
<path d="M283.781 78.6836H280.928V81.6485H283.781V78.6836Z" fill="#F0F0F0"/>
<path d="M283.781 83.6416H280.928V86.6065H283.781V83.6416Z" fill="#F0F0F0"/>
<path d="M283.781 88.6006H280.929V91.5655H283.781V88.6006Z" fill="#F0F0F0"/>
<path d="M283.781 93.5703H280.928V96.5352H283.781V93.5703Z" fill="#F0F0F0"/>
<path d="M283.781 98.5293H280.929V101.494H283.781V98.5293Z" fill="#F0F0F0"/>
<path d="M288.3 63.7852H285.448V66.75H288.3V63.7852Z" fill="#F0F0F0"/>
<path d="M288.3 68.7549H285.448V71.7197H288.3V68.7549Z" fill="#F0F0F0"/>
<path d="M288.3 73.7139H285.448V76.6787H288.3V73.7139Z" fill="#F0F0F0"/>
<path d="M288.3 78.6836H285.448V81.6485H288.3V78.6836Z" fill="#F0F0F0"/>
<path d="M288.3 83.6426H285.448V86.6075H288.3V83.6426Z" fill="#F0F0F0"/>
<path d="M288.3 88.6006H285.448V91.5655H288.3V88.6006Z" fill="#F0F0F0"/>
<path d="M288.3 93.5703H285.448V96.5352H288.3V93.5703Z" fill="#F0F0F0"/>
<path d="M288.3 98.5293H285.448V101.494H288.3V98.5293Z" fill="#F0F0F0"/>
<path d="M292.83 63.7852H289.977V66.75H292.83V63.7852Z" fill="#F0F0F0"/>
<path d="M292.83 68.7549H289.977V71.7197H292.83V68.7549Z" fill="#F0F0F0"/>
<path d="M292.83 73.7139H289.977V76.6787H292.83V73.7139Z" fill="#F0F0F0"/>
<path d="M292.83 88.6006H289.977V91.5655H292.83V88.6006Z" fill="#F0F0F0"/>
<path d="M292.83 93.5703H289.977V96.5352H292.83V93.5703Z" fill="#F0F0F0"/>
<path d="M292.83 98.5293H289.977V101.494H292.83V98.5293Z" fill="#F0F0F0"/>
<path d="M340.235 34.0117H337.383V36.9766H340.235V34.0117Z" fill="#F0F0F0"/>
<path d="M340.235 38.9707H337.383V41.9356H340.235V38.9707Z" fill="#F0F0F0"/>
<path d="M340.235 43.9395H337.383V46.9043H340.235V43.9395Z" fill="#F0F0F0"/>
<path d="M340.235 48.8984H337.383V51.8633H340.235V48.8984Z" fill="#F0F0F0"/>
<path d="M340.235 53.8682H337.383V56.833H340.235V53.8682Z" fill="#F0F0F0"/>
<path d="M340.235 58.8271H337.383V61.792H340.235V58.8271Z" fill="#F0F0F0"/>
<path d="M340.235 63.7861H337.383V66.751H340.235V63.7861Z" fill="#F0F0F0"/>
<path d="M340.235 68.7549H337.383V71.7197H340.235V68.7549Z" fill="#F0F0F0"/>
<path d="M340.235 73.7139H337.383V76.6787H340.235V73.7139Z" fill="#F0F0F0"/>
<path d="M340.235 78.6836H337.383V81.6485H340.235V78.6836Z" fill="#F0F0F0"/>
<path d="M340.235 83.6416H337.383V86.6065H340.235V83.6416Z" fill="#F0F0F0"/>
<path d="M340.235 88.6006H337.383V91.5655H340.235V88.6006Z" fill="#F0F0F0"/>
<path d="M340.235 93.5703H337.383V96.5352H340.235V93.5703Z" fill="#F0F0F0"/>
<path d="M340.235 98.5293H337.383V101.494H340.235V98.5293Z" fill="#F0F0F0"/>
<path d="M344.764 34.0117H341.912V36.9766H344.764V34.0117Z" fill="#F0F0F0"/>
<path d="M344.764 38.9707H341.912V41.9356H344.764V38.9707Z" fill="#F0F0F0"/>
<path d="M344.764 43.9395H341.912V46.9043H344.764V43.9395Z" fill="#F0F0F0"/>
<path d="M344.764 48.8984H341.912V51.8633H344.764V48.8984Z" fill="#F0F0F0"/>
<path d="M344.764 53.8682H341.912V56.833H344.764V53.8682Z" fill="#F0F0F0"/>
<path d="M344.764 58.8271H341.912V61.792H344.764V58.8271Z" fill="#F0F0F0"/>
<path d="M344.764 63.7861H341.912V66.751H344.764V63.7861Z" fill="#F0F0F0"/>
<path d="M344.764 68.7549H341.912V71.7197H344.764V68.7549Z" fill="#F0F0F0"/>
<path d="M344.764 73.7139H341.912V76.6787H344.764V73.7139Z" fill="#F0F0F0"/>
<path d="M344.764 78.6836H341.912V81.6485H344.764V78.6836Z" fill="#F0F0F0"/>
<path d="M344.764 83.6416H341.912V86.6065H344.764V83.6416Z" fill="#F0F0F0"/>
<path d="M344.764 88.6006H341.912V91.5655H344.764V88.6006Z" fill="#F0F0F0"/>
<path d="M344.764 93.5703H341.912V96.5352H344.764V93.5703Z" fill="#F0F0F0"/>
<path d="M344.764 98.5293H341.912V101.494H344.764V98.5293Z" fill="#F0F0F0"/>
<path d="M349.284 34.0117H346.431V36.9766H349.284V34.0117Z" fill="#F0F0F0"/>
<path d="M349.284 38.9707H346.431V41.9356H349.284V38.9707Z" fill="#F0F0F0"/>
<path d="M349.284 43.9395H346.431V46.9043H349.284V43.9395Z" fill="#F0F0F0"/>
<path d="M349.284 48.8984H346.431V51.8633H349.284V48.8984Z" fill="#F0F0F0"/>
<path d="M349.284 53.8682H346.431V56.833H349.284V53.8682Z" fill="#F0F0F0"/>
<path d="M349.284 58.8271H346.431V61.792H349.284V58.8271Z" fill="#F0F0F0"/>
<path d="M349.284 63.7852H346.431V66.75H349.284V63.7852Z" fill="#F0F0F0"/>
<path d="M349.284 68.7549H346.431V71.7197H349.284V68.7549Z" fill="#F0F0F0"/>
<path d="M349.284 73.7139H346.431V76.6787H349.284V73.7139Z" fill="#F0F0F0"/>
<path d="M349.284 78.6836H346.431V81.6485H349.284V78.6836Z" fill="#F0F0F0"/>
<path d="M349.284 83.6426H346.431V86.6075H349.284V83.6426Z" fill="#F0F0F0"/>
<path d="M349.284 88.6006H346.431V91.5655H349.284V88.6006Z" fill="#F0F0F0"/>
<path d="M349.284 93.5703H346.431V96.5352H349.284V93.5703Z" fill="#F0F0F0"/>
<path d="M349.284 98.5293H346.431V101.494H349.284V98.5293Z" fill="#F0F0F0"/>
<path d="M353.804 34.0117H350.952V36.9766H353.804V34.0117Z" fill="#F0F0F0"/>
<path d="M353.804 38.9707H350.952V41.9356H353.804V38.9707Z" fill="#F0F0F0"/>
<path d="M353.804 43.9395H350.952V46.9043H353.804V43.9395Z" fill="#F0F0F0"/>
<path d="M353.804 48.8984H350.952V51.8633H353.804V48.8984Z" fill="#F0F0F0"/>
<path d="M353.804 53.8682H350.952V56.833H353.804V53.8682Z" fill="#F0F0F0"/>
<path d="M353.804 58.8271H350.952V61.792H353.804V58.8271Z" fill="#F0F0F0"/>
<path d="M353.804 63.7852H350.952V66.75H353.804V63.7852Z" fill="#F0F0F0"/>
<path d="M353.804 68.7549H350.952V71.7197H353.804V68.7549Z" fill="#F0F0F0"/>
<path d="M353.804 73.7139H350.952V76.6787H353.804V73.7139Z" fill="#F0F0F0"/>
<path d="M353.804 78.6836H350.952V81.6485H353.804V78.6836Z" fill="#F0F0F0"/>
<path d="M353.804 83.6426H350.952V86.6075H353.804V83.6426Z" fill="#F0F0F0"/>
<path d="M353.804 88.6006H350.952V91.5655H353.804V88.6006Z" fill="#F0F0F0"/>
<path d="M353.804 93.5703H350.952V96.5352H353.804V93.5703Z" fill="#F0F0F0"/>
<path d="M353.804 98.5293H350.952V101.494H353.804V98.5293Z" fill="#F0F0F0"/>
<path d="M358.334 34.0117H355.481V36.9766H358.334V34.0117Z" fill="#F0F0F0"/>
<path d="M358.334 38.9707H355.481V41.9356H358.334V38.9707Z" fill="#F0F0F0"/>
<path d="M358.334 43.9395H355.481V46.9043H358.334V43.9395Z" fill="#F0F0F0"/>
<path d="M358.334 48.8984H355.481V51.8633H358.334V48.8984Z" fill="#F0F0F0"/>
<path d="M358.334 53.8682H355.481V56.833H358.334V53.8682Z" fill="#F0F0F0"/>
<path d="M358.334 58.8271H355.481V61.792H358.334V58.8271Z" fill="#F0F0F0"/>
<path d="M358.334 63.7852H355.481V66.75H358.334V63.7852Z" fill="#F0F0F0"/>
<path d="M358.334 68.7549H355.481V71.7197H358.334V68.7549Z" fill="#F0F0F0"/>
<path d="M358.334 73.7139H355.481V76.6787H358.334V73.7139Z" fill="#F0F0F0"/>
<path d="M358.334 78.6836H355.481V81.6485H358.334V78.6836Z" fill="#F0F0F0"/>
<path d="M358.334 83.6426H355.481V86.6075H358.334V83.6426Z" fill="#F0F0F0"/>
<path d="M358.334 88.6006H355.481V91.5655H358.334V88.6006Z" fill="#F0F0F0"/>
<path d="M358.334 93.5703H355.481V96.5352H358.334V93.5703Z" fill="#F0F0F0"/>
<path d="M362.853 34.0117H360.001V36.9766H362.853V34.0117Z" fill="#F0F0F0"/>
<path d="M362.853 38.9707H360.001V41.9356H362.853V38.9707Z" fill="#F0F0F0"/>
<path d="M362.853 43.9395H360.001V46.9043H362.853V43.9395Z" fill="#F0F0F0"/>
<path d="M362.853 48.8984H360.001V51.8633H362.853V48.8984Z" fill="#F0F0F0"/>
<path d="M362.853 53.8682H360.001V56.833H362.853V53.8682Z" fill="#F0F0F0"/>
<path d="M362.853 58.8271H360.001V61.792H362.853V58.8271Z" fill="#F0F0F0"/>
<path d="M362.853 63.7861H360.001V66.751H362.853V63.7861Z" fill="#F0F0F0"/>
<path d="M362.853 68.7549H360.001V71.7197H362.853V68.7549Z" fill="#F0F0F0"/>
<path d="M362.853 73.7139H360.001V76.6787H362.853V73.7139Z" fill="#F0F0F0"/>
<path d="M362.853 78.6836H360.001V81.6485H362.853V78.6836Z" fill="#F0F0F0"/>
<path d="M362.853 83.6416H360.001V86.6065H362.853V83.6416Z" fill="#F0F0F0"/>
<path d="M362.853 88.6006H360.001V91.5655H362.853V88.6006Z" fill="#F0F0F0"/>
<path d="M30.4635 70.2373H27.6111V73.2022H30.4635V70.2373Z" fill="#F0F0F0"/>
<path d="M30.4635 75.1963H27.6111V78.1611H30.4635V75.1963Z" fill="#F0F0F0"/>
<path d="M30.4635 80.1543H27.6111V83.1192H30.4635V80.1543Z" fill="#F0F0F0"/>
<path d="M30.4635 85.125H27.6111V88.0899H30.4635V85.125Z" fill="#F0F0F0"/>
<path d="M30.4635 90.084H27.6111V93.0489H30.4635V90.084Z" fill="#F0F0F0"/>
<path d="M30.4635 95.0527H27.6111V98.0176H30.4635V95.0527Z" fill="#F0F0F0"/>
<path d="M34.9928 70.2373H32.1404V73.2022H34.9928V70.2373Z" fill="#F0F0F0"/>
<path d="M34.9928 75.1963H32.1404V78.1611H34.9928V75.1963Z" fill="#F0F0F0"/>
<path d="M34.9928 80.1543H32.1404V83.1192H34.9928V80.1543Z" fill="#F0F0F0"/>
<path d="M34.9928 85.125H32.1404V88.0899H34.9928V85.125Z" fill="#F0F0F0"/>
<path d="M34.9928 90.084H32.1404V93.0489H34.9928V90.084Z" fill="#F0F0F0"/>
<path d="M34.9928 95.0527H32.1404V98.0176H34.9928V95.0527Z" fill="#F0F0F0"/>
<path d="M39.5115 70.2373H36.6591V73.2022H39.5115V70.2373Z" fill="#F0F0F0"/>
<path d="M39.5115 75.1963H36.6591V78.1611H39.5115V75.1963Z" fill="#F0F0F0"/>
<path d="M39.5113 80.1553H36.659V83.1201H39.5113V80.1553Z" fill="#F0F0F0"/>
<path d="M39.5113 85.124H36.659V88.0889H39.5113V85.124Z" fill="#F0F0F0"/>
<path d="M39.5113 90.083H36.659V93.0479H39.5113V90.083Z" fill="#F0F0F0"/>
<path d="M39.5115 95.0527H36.6591V98.0176H39.5115V95.0527Z" fill="#F0F0F0"/>
<path d="M98.8199 32.5293H95.9675V35.4942H98.8199V32.5293Z" fill="#F0F0F0"/>
<path d="M98.8199 37.498H95.9675V40.4629H98.8199V37.498Z" fill="#F0F0F0"/>
<path d="M98.8199 42.457H95.9675V45.4219H98.8199V42.457Z" fill="#F0F0F0"/>
<path d="M98.8199 47.416H95.9675V50.3809H98.8199V47.416Z" fill="#F0F0F0"/>
<path d="M98.8199 52.3848H95.9675V55.3496H98.8199V52.3848Z" fill="#F0F0F0"/>
<path d="M98.8199 57.3438H95.9675V60.3086H98.8199V57.3438Z" fill="#F0F0F0"/>
<path d="M98.8199 62.3145H95.9675V65.2793H98.8199V62.3145Z" fill="#F0F0F0"/>
<path d="M98.8199 67.2725H95.9675V70.2373H98.8199V67.2725Z" fill="#F0F0F0"/>
<path d="M98.8199 72.2314H95.9675V75.1963H98.8199V72.2314Z" fill="#F0F0F0"/>
<path d="M98.8199 77.2012H95.9675V80.166H98.8199V77.2012Z" fill="#F0F0F0"/>
<path d="M98.8199 82.1592H95.9675V85.124H98.8199V82.1592Z" fill="#F0F0F0"/>
<path d="M98.8199 87.1289H95.9675V90.0938H98.8199V87.1289Z" fill="#F0F0F0"/>
<path d="M98.8199 92.0879H95.9675V95.0527H98.8199V92.0879Z" fill="#F0F0F0"/>
<path d="M98.8199 97.0469H95.9675V100.012H98.8199V97.0469Z" fill="#F0F0F0"/>
<path d="M103.338 32.5293H100.486V35.4942H103.338V32.5293Z" fill="#F0F0F0"/>
<path d="M103.338 37.499H100.486V40.4639H103.338V37.499Z" fill="#F0F0F0"/>
<path d="M103.338 42.457H100.486V45.4219H103.338V42.457Z" fill="#F0F0F0"/>
<path d="M103.338 47.416H100.486V50.3809H103.338V47.416Z" fill="#F0F0F0"/>
<path d="M103.338 52.3857H100.486V55.3506H103.338V52.3857Z" fill="#F0F0F0"/>
<path d="M103.338 57.3438H100.486V60.3086H103.338V57.3438Z" fill="#F0F0F0"/>
<path d="M103.338 62.3135H100.486V65.2783H103.338V62.3135Z" fill="#F0F0F0"/>
<path d="M103.338 67.2725H100.486V70.2373H103.338V67.2725Z" fill="#F0F0F0"/>
<path d="M103.338 72.2314H100.486V75.1963H103.338V72.2314Z" fill="#F0F0F0"/>
<path d="M103.338 77.2002H100.486V80.1651H103.338V77.2002Z" fill="#F0F0F0"/>
<path d="M103.338 82.1592H100.486V85.124H103.338V82.1592Z" fill="#F0F0F0"/>
<path d="M103.338 87.1289H100.486V90.0938H103.338V87.1289Z" fill="#F0F0F0"/>
<path d="M103.338 92.0879H100.486V95.0527H103.338V92.0879Z" fill="#F0F0F0"/>
<path d="M103.338 97.0459H100.486V100.011H103.338V97.0459Z" fill="#F0F0F0"/>
<path d="M107.869 32.5293H105.016V35.4942H107.869V32.5293Z" fill="#F0F0F0"/>
<path d="M107.869 37.499H105.016V40.4639H107.869V37.499Z" fill="#F0F0F0"/>
<path d="M107.869 42.457H105.016V45.4219H107.869V42.457Z" fill="#F0F0F0"/>
<path d="M107.869 47.416H105.016V50.3809H107.869V47.416Z" fill="#F0F0F0"/>
<path d="M107.869 52.3857H105.016V55.3506H107.869V52.3857Z" fill="#F0F0F0"/>
<path d="M107.869 57.3438H105.016V60.3086H107.869V57.3438Z" fill="#F0F0F0"/>
<path d="M107.869 62.3135H105.016V65.2783H107.869V62.3135Z" fill="#F0F0F0"/>
<path d="M107.869 67.2725H105.016V70.2373H107.869V67.2725Z" fill="#F0F0F0"/>
<path d="M107.869 72.2314H105.016V75.1963H107.869V72.2314Z" fill="#F0F0F0"/>
<path d="M107.869 77.2002H105.016V80.1651H107.869V77.2002Z" fill="#F0F0F0"/>
<path d="M107.869 82.1592H105.016V85.124H107.869V82.1592Z" fill="#F0F0F0"/>
<path d="M107.869 87.1289H105.016V90.0938H107.869V87.1289Z" fill="#F0F0F0"/>
<path d="M107.869 92.0879H105.016V95.0527H107.869V92.0879Z" fill="#F0F0F0"/>
<path d="M107.869 97.0459H105.016V100.011H107.869V97.0459Z" fill="#F0F0F0"/>
<path d="M82.3982 95.0527H79.5458V98.0176H82.3982V95.0527Z" fill="#F0F0F0"/>
<path d="M86.9275 95.0527H84.0751V98.0176H86.9275V95.0527Z" fill="#F0F0F0"/>
<path d="M91.4469 95.0527H88.5945V98.0176H91.4469V95.0527Z" fill="#F0F0F0"/>
<path d="M186.78 67.2725H183.928V70.2373H186.78V67.2725Z" fill="#F0F0F0"/>
<path d="M186.78 72.2314H183.928V75.1963H186.78V72.2314Z" fill="#F0F0F0"/>
<path d="M186.78 77.2002H183.928V80.1651H186.78V77.2002Z" fill="#F0F0F0"/>
<path d="M186.78 82.1592H183.928V85.124H186.78V82.1592Z" fill="#F0F0F0"/>
<path d="M186.78 87.1289H183.928V90.0938H186.78V87.1289Z" fill="#F0F0F0"/>
<path d="M186.78 92.0879H183.928V95.0527H186.78V92.0879Z" fill="#F0F0F0"/>
<path d="M186.78 97.0459H183.928V100.011H186.78V97.0459Z" fill="#F0F0F0"/>
<path d="M191.299 67.2725H188.447V70.2373H191.299V67.2725Z" fill="#F0F0F0"/>
<path d="M191.299 72.2314H188.447V75.1963H191.299V72.2314Z" fill="#F0F0F0"/>
<path d="M191.299 77.2012H188.447V80.166H191.299V77.2012Z" fill="#F0F0F0"/>
<path d="M191.299 82.1592H188.447V85.124H191.299V82.1592Z" fill="#F0F0F0"/>
<path d="M191.299 87.1289H188.447V90.0938H191.299V87.1289Z" fill="#F0F0F0"/>
<path d="M191.299 92.0879H188.447V95.0527H191.299V92.0879Z" fill="#F0F0F0"/>
<path d="M191.299 97.0469H188.447V100.012H191.299V97.0469Z" fill="#F0F0F0"/>
<path d="M195.819 67.2725H192.966V70.2373H195.819V67.2725Z" fill="#F0F0F0"/>
<path d="M195.819 72.2314H192.966V75.1963H195.819V72.2314Z" fill="#F0F0F0"/>
<path d="M195.819 77.2002H192.967V80.1651H195.819V77.2002Z" fill="#F0F0F0"/>
<path d="M195.819 82.1592H192.966V85.124H195.819V82.1592Z" fill="#F0F0F0"/>
<path d="M195.819 87.1289H192.966V90.0938H195.819V87.1289Z" fill="#F0F0F0"/>
<path d="M195.819 92.0879H192.967V95.0527H195.819V92.0879Z" fill="#F0F0F0"/>
<path d="M195.819 97.0459H192.967V100.011H195.819V97.0459Z" fill="#F0F0F0"/>
<path d="M168.35 95.5742H165.498V98.5391H168.35V95.5742Z" fill="#F0F0F0"/>
<path d="M172.87 95.5742H170.017V98.5391H172.87V95.5742Z" fill="#F0F0F0"/>
<path d="M323.152 73.7139H320.3V76.6787H323.152V73.7139Z" fill="#F0F0F0"/>
<path d="M323.152 78.6836H320.3V81.6485H323.152V78.6836Z" fill="#F0F0F0"/>
<path d="M323.152 83.6426H320.3V86.6075H323.152V83.6426Z" fill="#F0F0F0"/>
<path d="M323.152 88.6006H320.3V91.5655H323.152V88.6006Z" fill="#F0F0F0"/>
<path d="M323.152 93.5703H320.3V96.5352H323.152V93.5703Z" fill="#F0F0F0"/>
<path d="M323.152 98.5293H320.3V101.494H323.152V98.5293Z" fill="#F0F0F0"/>
<path d="M327.671 73.7139H324.818V76.6787H327.671V73.7139Z" fill="#F0F0F0"/>
<path d="M327.67 78.6836H324.818V81.6485H327.67V78.6836Z" fill="#F0F0F0"/>
<path d="M327.67 83.6416H324.818V86.6065H327.67V83.6416Z" fill="#F0F0F0"/>
<path d="M327.671 88.6006H324.818V91.5655H327.671V88.6006Z" fill="#F0F0F0"/>
<path d="M327.67 93.5703H324.818V96.5352H327.67V93.5703Z" fill="#F0F0F0"/>
<path d="M327.671 98.5293H324.818V101.494H327.671V98.5293Z" fill="#F0F0F0"/>
<path d="M300.865 93.0479H298.012V96.0127H300.865V93.0479Z" fill="#F0F0F0"/>
<path d="M300.865 98.0068H298.012V100.972H300.865V98.0068Z" fill="#F0F0F0"/>
<path d="M305.394 93.0479H302.542V96.0127H305.394V93.0479Z" fill="#F0F0F0"/>
<path d="M305.394 98.0068H302.542V100.972H305.394V98.0068Z" fill="#F0F0F0"/>
</g>
</g>
<defs>
<clipPath id="clip0_1605_55854">
<rect width="375" height="100" fill="white"/>
</clipPath>
</defs>
</svg>
