<svg width="300" height="507" viewBox="0 0 300 507" fill="none" xmlns="http://www.w3.org/2000/svg">
<g clip-path="url(#clip0_1689_52008)">
<rect width="300" height="507" rx="5" fill="#2D2D2A"/>
<path d="M304.014 -15.3582L295.422 54.9697L275.502 66.5627L280.027 -14.1564L304.014 -15.3582Z" fill="#930417"/>
<path d="M275.503 66.5628L329.027 189.781L346.868 171.186L295.422 54.9697L275.503 66.5628Z" fill="#E0052A"/>
<path d="M241.627 -26.5771L328.686 99.5942L357.926 99.1745L235 -78.3075L241.627 -26.5771Z" fill="#670714"/>
<path d="M-4.67463 -13.2948L5.40676 52.5817L25.374 62.7985L19.0827 -12.997L-4.67463 -13.2948Z" fill="#930417"/>
<path d="M25.6991 62.5076L-24.4816 180.308L-42.5491 163.431L5.73202 52.2909L25.6991 62.5076Z" fill="#E0052A"/>
<path d="M56.9943 -25.6882L-26.4764 95.3969L-55.7158 95.8781L62.1638 -74.4632L56.9943 -25.6882Z" fill="#670714"/>
</g>
<defs>
<clipPath id="clip0_1689_52008">
<rect width="300" height="507" rx="5" fill="white"/>
</clipPath>
</defs>
</svg>
