<svg width="40" height="40" viewBox="0 0 40 40" fill="none" xmlns="http://www.w3.org/2000/svg">
<g opacity="0.8">
<circle cx="19.9658" cy="19.9951" r="16.665" fill="#1D2D7F"/>
<path d="M13.334 26.6668H26.6673V13.3335H13.334V26.6668ZM20.0007 36.6668C17.6951 36.6668 15.5284 36.229 13.5007 35.3535C11.4729 34.4779 9.70898 33.2907 8.20898 31.7918C6.70898 30.2918 5.52176 28.5279 4.64732 26.5002C3.77287 24.4724 3.3351 22.3057 3.33398 20.0002C3.33398 17.6946 3.77176 15.5279 4.64732 13.5002C5.52287 11.4724 6.7101 9.7085 8.20898 8.2085C9.70898 6.7085 11.4729 5.52127 13.5007 4.64683C15.5284 3.77239 17.6951 3.33461 20.0007 3.3335C22.3062 3.3335 24.4729 3.77127 26.5007 4.64683C28.5284 5.52239 30.2923 6.70961 31.7923 8.2085C33.2923 9.7085 34.4801 11.4724 35.3556 13.5002C36.2312 15.5279 36.6684 17.6946 36.6673 20.0002C36.6673 22.3057 36.2295 24.4724 35.354 26.5002C34.4784 28.5279 33.2912 30.2918 31.7923 31.7918C30.2923 33.2918 28.5284 34.4796 26.5007 35.3552C24.4729 36.2307 22.3062 36.6679 20.0007 36.6668Z" fill="white"/>
</g>
</svg>
