<svg width="43" height="42" viewBox="0 0 43 42" fill="none" xmlns="http://www.w3.org/2000/svg">
<path fill-rule="evenodd" clip-rule="evenodd" d="M18.3415 0C8.46916 1.71594 0.962646 10.3258 0.962646 20.6889C0.962646 32.2869 10.3647 41.6889 21.9626 41.6889C31.9304 41.6889 40.2762 34.7443 42.4254 25.4294L15.9626 25.4268L18.3415 0Z" fill="#FF9393"/>
<circle cx="21.9626" cy="20.6875" r="18" fill="#D92129"/>
<path fill-rule="evenodd" clip-rule="evenodd" d="M26.2462 14.2495C25.6852 14.1373 24.9275 14.0535 24.451 14.0535C23.1607 14.0535 23.0769 14.6145 23.0769 15.5121V17.11H26.3023L26.0211 20.4199H23.0769V30.4875H19.0383V20.4199H16.9626V17.11H19.0383V15.0626C19.0383 12.2583 20.3564 10.6875 23.6656 10.6875C24.8153 10.6875 25.6568 10.8558 26.7504 11.0802L26.2462 14.2495Z" fill="white"/>
</svg>
