<svg width="29" height="29" viewBox="0 0 29 29" fill="none" xmlns="http://www.w3.org/2000/svg">
<path fill-rule="evenodd" clip-rule="evenodd" d="M17.5587 1.16458C16.5176 0.920262 15.4321 0.791016 14.3163 0.791016C6.51752 0.791016 0.195312 7.10564 0.195312 14.8951C0.195312 22.6846 6.51752 28.9992 14.3163 28.9992C17.3439 28.9992 20.1489 28.0476 22.4479 26.4274L15.1953 26.4267L17.5587 1.16458Z" fill="#FF7373"/>
<ellipse cx="14.3166" cy="14.8942" rx="12.1037" ry="12.0892" fill="#DE2027"/>
<g clip-path="url(#clip0_1629_8811)">
<path d="M18.6976 11.0863C18.5997 11.0358 18.5044 10.9804 18.4121 10.9204C18.1437 10.7431 17.8975 10.5343 17.679 10.2983C17.1323 9.67344 16.9281 9.03955 16.8528 8.59574H16.8559C16.793 8.22736 16.819 7.98901 16.8229 7.98901H14.3327V17.6068C14.3327 17.7359 14.3327 17.8636 14.3273 17.9897C14.3273 18.0054 14.3257 18.0198 14.3248 18.0367C14.3248 18.0437 14.3248 18.0509 14.3233 18.0582V18.0636C14.2971 18.4087 14.1863 18.742 14.0008 19.0343C13.8153 19.3266 13.5607 19.5689 13.2594 19.7399C12.9455 19.9183 12.5903 20.0119 12.2291 20.0114C11.0688 20.0114 10.1285 19.0665 10.1285 17.8995C10.1285 16.7325 11.0688 15.7875 12.2291 15.7875C12.4487 15.7873 12.667 15.8218 12.8758 15.8898L12.8788 13.3573C12.2449 13.2755 11.6009 13.3258 10.9874 13.5051C10.3739 13.6843 9.80428 13.9886 9.31443 14.3988C8.88521 14.7712 8.52437 15.2157 8.24813 15.7121C8.14301 15.8931 7.7464 16.6205 7.69837 17.8011C7.66816 18.4712 7.86964 19.1654 7.9657 19.4523V19.4584C8.02611 19.6273 8.26021 20.2039 8.64173 20.6899C8.94936 21.0798 9.31283 21.4223 9.72041 21.7064V21.7003L9.72645 21.7064C10.932 22.5246 12.2687 22.4709 12.2687 22.4709C12.5 22.4616 13.2752 22.4709 14.1554 22.0542C15.1317 21.5923 15.6875 20.9041 15.6875 20.9041C16.0425 20.4929 16.3249 20.0243 16.5224 19.5184C16.7477 18.9268 16.8229 18.2172 16.8229 17.9335V12.8311C16.8532 12.8492 17.2555 13.115 17.2555 13.115C17.2555 13.115 17.8352 13.4861 18.7396 13.7278C19.3884 13.8997 20.2626 13.9359 20.2626 13.9359V11.4668C19.9563 11.5 19.3343 11.4034 18.6976 11.0863Z" fill="white"/>
</g>
<defs>
<clipPath id="clip0_1629_8811">
<rect width="15.4659" height="15.4473" fill="white" transform="translate(6.24707 7.50635)"/>
</clipPath>
</defs>
</svg>
