<svg width="29" height="29" viewBox="0 0 29 29" fill="none" xmlns="http://www.w3.org/2000/svg">
<path fill-rule="evenodd" clip-rule="evenodd" d="M18.1251 1.16458C17.084 0.920262 15.9985 0.791016 14.8828 0.791016C7.08392 0.791016 0.761719 7.10564 0.761719 14.8951C0.761719 22.6846 7.08392 28.9992 14.8828 28.9992C17.9103 28.9992 20.7153 28.0476 23.0143 26.4274L15.7617 26.4267L18.1251 1.16458Z" fill="#FF7373"/>
<ellipse cx="14.883" cy="14.8942" rx="12.1037" ry="12.0892" fill="#DE2027"/>
<path fill-rule="evenodd" clip-rule="evenodd" d="M22.0108 10.2451C21.4768 10.482 20.9022 10.6416 20.2995 10.7136C20.9148 10.3452 21.3873 9.76204 21.6095 9.0672C21.0344 9.40858 20.3958 9.65567 19.7176 9.78961C19.1739 9.2113 18.3988 8.84961 17.5424 8.84961C15.8969 8.84961 14.5627 10.1822 14.5627 11.8258C14.5627 12.0588 14.5893 12.2861 14.6401 12.5042C12.1634 12.3804 9.96791 11.1952 8.49813 9.39455C8.24155 9.83409 8.09486 10.3452 8.09486 10.8906C8.09486 11.923 8.62013 12.834 9.42038 13.3678C8.93142 13.3523 8.47247 13.2184 8.07017 12.9955V13.0327C8.07017 14.4751 9.09795 15.6776 10.4603 15.9518C10.2105 16.0195 9.9471 16.0562 9.67551 16.0562C9.48331 16.0562 9.29644 16.0374 9.11441 16.0026C9.49348 17.1848 10.5944 18.0455 11.8981 18.0697C10.8785 18.8675 9.59369 19.3438 8.1975 19.3438C7.95641 19.3438 7.71919 19.3298 7.48633 19.3017C8.80506 20.146 10.3712 20.6392 12.054 20.6392C17.5347 20.6392 20.5318 16.1041 20.5318 12.1715C20.5318 12.0424 20.5294 11.9138 20.5231 11.7866C21.106 11.3659 21.6114 10.8418 22.0108 10.2451Z" fill="white"/>
</svg>
