<svg width="29" height="29" viewBox="0 0 29 29" fill="none" xmlns="http://www.w3.org/2000/svg">
<path fill-rule="evenodd" clip-rule="evenodd" d="M18.2443 1.16458C17.2032 0.920262 16.1176 0.791016 15.0019 0.791016C7.20306 0.791016 0.880859 7.10564 0.880859 14.8951C0.880859 22.6846 7.20306 28.9992 15.0019 28.9992C18.0295 28.9992 20.8345 28.0476 23.1335 26.4274L15.8808 26.4267L18.2443 1.16458Z" fill="#FF7373"/>
<ellipse cx="15.0022" cy="14.8942" rx="12.1037" ry="12.0892" fill="#DE2027"/>
<path fill-rule="evenodd" clip-rule="evenodd" d="M17.8822 10.5703C17.5049 10.495 16.9955 10.4387 16.675 10.4387C15.8074 10.4387 15.751 10.8154 15.751 11.4183V12.4915H17.9199L17.7308 14.7145H15.751V21.4761H13.0354V14.7145H11.6396V12.4915H13.0354V11.1164C13.0354 9.23296 13.9217 8.17798 16.1469 8.17798C16.92 8.17798 17.4859 8.29101 18.2212 8.44173L17.8822 10.5703Z" fill="white"/>
</svg>
