<svg width="28" height="29" viewBox="0 0 28 29" fill="none" xmlns="http://www.w3.org/2000/svg">
<path fill-rule="evenodd" clip-rule="evenodd" d="M17.3634 1.16458C16.3223 0.920262 15.2368 0.791016 14.121 0.791016C6.3222 0.791016 0 7.10564 0 14.8951C0 22.6846 6.3222 28.9992 14.121 28.9992C17.1486 28.9992 19.9536 28.0476 22.2526 26.4274L15 26.4267L17.3634 1.16458Z" fill="#FF7373"/>
<ellipse cx="14.1213" cy="14.8942" rx="12.1037" ry="12.0892" fill="#DE2027"/>
<path d="M14.1214 8.83749C16.0964 8.83749 16.3303 8.84502 17.1103 8.88057C17.8314 8.91341 18.2231 9.03377 18.4837 9.13494C18.829 9.26896 19.0754 9.42905 19.3342 9.68756C19.5931 9.9461 19.7533 10.1922 19.8875 10.5371C19.9888 10.7974 20.1093 11.1886 20.1422 11.9089C20.1778 12.6879 20.1853 12.9216 20.1853 14.8942C20.1853 16.8668 20.1778 17.1005 20.1422 17.8795C20.1093 18.5998 19.9888 18.991 19.8875 19.2513C19.7533 19.5962 19.5931 19.8423 19.3342 20.1008C19.0754 20.3593 18.829 20.5194 18.4837 20.6534C18.2231 20.7546 17.8314 20.875 17.1103 20.9078C16.3304 20.9433 16.0965 20.9509 14.1214 20.9509C12.1462 20.9509 11.9123 20.9433 11.1324 20.9078C10.4113 20.875 10.0196 20.7546 9.75896 20.6534C9.4137 20.5194 9.1673 20.3593 8.90848 20.1008C8.64966 19.8423 8.48935 19.5962 8.35516 19.2513C8.25387 18.991 8.13337 18.5998 8.10048 17.8795C8.0649 17.1005 8.05735 16.8668 8.05735 14.8942C8.05735 12.9216 8.0649 12.6879 8.10048 11.9089C8.13337 11.1886 8.25387 10.7974 8.35516 10.5371C8.48935 10.1922 8.64963 9.9461 8.90848 9.68759C9.1673 9.42905 9.4137 9.26896 9.75896 9.13494C10.0196 9.03377 10.4113 8.91341 11.1324 8.88057C11.9124 8.84502 12.1463 8.83749 14.1214 8.83749ZM14.1214 7.50635C12.1125 7.50635 11.8606 7.51485 11.0717 7.55081C10.2844 7.58667 9.74669 7.71157 9.2762 7.89419C8.7898 8.08299 8.3773 8.3356 7.96607 8.74631C7.55486 9.15705 7.30194 9.56906 7.11294 10.0549C6.93008 10.5248 6.80503 11.0618 6.76912 11.8482C6.73312 12.6362 6.72461 12.8878 6.72461 14.8942C6.72461 16.9006 6.73312 17.1522 6.76912 17.9402C6.80503 18.7265 6.93008 19.2636 7.11294 19.7335C7.30194 20.2193 7.55486 20.6313 7.96607 21.0421C8.3773 21.4528 8.7898 21.7054 9.2762 21.8942C9.74669 22.0768 10.2844 22.2017 11.0717 22.2376C11.8606 22.2735 12.1125 22.282 14.1214 22.282C16.1302 22.282 16.3821 22.2735 17.171 22.2376C17.9583 22.2017 18.496 22.0768 18.9665 21.8942C19.4529 21.7054 19.8654 21.4528 20.2766 21.0421C20.6878 20.6313 20.9407 20.2193 21.1298 19.7335C21.3126 19.2636 21.4377 18.7265 21.4736 17.9402C21.5096 17.1522 21.5181 16.9006 21.5181 14.8942C21.5181 12.8878 21.5096 12.6362 21.4736 11.8482C21.4377 11.0618 21.3126 10.5248 21.1298 10.0549C20.9407 9.56906 20.6878 9.15705 20.2766 8.74631C19.8654 8.3356 19.4529 8.08299 18.9665 7.89419C18.496 7.71157 17.9583 7.58667 17.171 7.55081C16.3821 7.51485 16.1302 7.50635 14.1214 7.50635Z" fill="white"/>
<path d="M14.1245 11.1021C12.0267 11.1021 10.3262 12.8006 10.3262 14.8958C10.3262 16.991 12.0267 18.6896 14.1245 18.6896C16.2223 18.6896 17.9228 16.991 17.9228 14.8958C17.9228 12.8006 16.2223 11.1021 14.1245 11.1021ZM14.1245 17.3584C12.7628 17.3584 11.6589 16.2559 11.6589 14.8958C11.6589 13.5357 12.7628 12.4332 14.1245 12.4332C15.4862 12.4332 16.5901 13.5357 16.5901 14.8958C16.5901 16.2559 15.4862 17.3584 14.1245 17.3584Z" fill="white"/>
<path d="M18.9608 10.9554C18.9608 11.445 18.5634 11.8419 18.0731 11.8419C17.583 11.8419 17.1855 11.445 17.1855 10.9554C17.1855 10.4658 17.583 10.0688 18.0731 10.0688C18.5634 10.0688 18.9608 10.4658 18.9608 10.9554Z" fill="white"/>
</svg>
