<svg width="25" height="24" viewBox="0 0 25 24" fill="none" xmlns="http://www.w3.org/2000/svg">
<path d="M12.5 24C19.1274 24 24.5 18.6274 24.5 12C24.5 5.37258 19.1274 0 12.5 0C5.87258 0 0.5 5.37258 0.5 12C0.5 18.6274 5.87258 24 12.5 24Z" fill="#AE9898"/>
<mask id="mask0_1546_50682" style="mask-type:alpha" maskUnits="userSpaceOnUse" x="0" y="0" width="25" height="24">
<path d="M12.5 24C19.1274 24 24.5 18.6274 24.5 12C24.5 5.37258 19.1274 0 12.5 0C5.87258 0 0.5 5.37258 0.5 12C0.5 18.6274 5.87258 24 12.5 24Z" fill="black"/>
</mask>
<g mask="url(#mask0_1546_50682)">
<path d="M8.31326 10.3384C8.31326 10.3384 7.67217 10.3784 7.77234 10.719C7.87251 11.0596 8.39339 12.3418 8.65384 12.3418C8.91428 12.3418 9.13465 12.1615 9.13465 12.1615L8.31326 10.3384Z" fill="#F5C7B5"/>
<path d="M16.7074 10.1379C16.7074 10.1379 17.3485 10.178 17.2483 10.5186C17.1481 10.8592 16.6272 12.1413 16.3668 12.1413C16.1064 12.1413 15.886 11.961 15.886 11.961L16.7074 10.1379Z" fill="#F5C7B5"/>
<path d="M13.5621 14.0847H11.4385V17.4103H13.5621V14.0847Z" fill="#E3B8A8"/>
<path d="M16.5271 9.06705C16.5271 10.8269 15.3972 13.4466 15.0495 13.8466C14.3541 14.6865 13.398 15.1665 12.4202 15.1665C11.4641 15.1665 10.508 14.7065 9.83432 13.8866C9.33454 13.2667 8.31323 10.8269 8.31323 9.06705C8.31323 5.46737 9.9647 3.94751 12.4202 3.94751C14.8757 3.94751 16.5271 5.56736 16.5271 9.06705Z" fill="#F5C7B5"/>
<path d="M6.21552 18.0927L10.0828 16.969L11.2781 16.6279H12.5203V29.4496H4.90299L3.9186 21.1627C3.77797 19.8785 4.80924 18.5141 6.21552 18.0927Z" fill="#C21C22"/>
<path d="M18.5318 18.0927L13.7047 16.6279H12.5203V29.4496H19.7833L20.7219 21.1627C20.856 19.8785 19.8727 18.5141 18.5318 18.0927Z" fill="#A7181D"/>
<path d="M11.4385 15.5872L12.5003 16.2683L11.7189 17.7709L10.4368 16.9495L11.4385 15.5872Z" fill="#EBEBEB"/>
<path d="M13.562 15.5872L12.5002 16.2683L13.2816 17.7709L14.5637 16.9495L13.562 15.5872Z" fill="#EBEBEB"/>
<path d="M10.1364 6.75228C10.1364 6.75228 11.4186 9.55703 14.2634 9.05618L13.6624 8.35499C13.6624 8.35499 17.4488 9.81747 18.5907 8.55533C18.5907 8.55533 17.9697 8.11458 16.7075 5.20967C16.0063 3.62699 14.4237 3.38658 13.3619 3.40662C10.0563 3.50679 10.1364 6.75228 10.1364 6.75228Z" fill="#2D2D2A"/>
<path d="M11.9794 4.14771C11.9794 4.14771 9.71553 3.36639 8.61367 4.78879C7.51181 6.2112 7.65204 9.67706 8.97428 11.7205H9.11452C9.11452 11.7205 8.3933 8.03428 9.6955 7.47334C10.9977 6.93242 11.6388 7.13276 11.6388 7.13276L11.9794 4.14771Z" fill="#2D2D2A"/>
<path d="M13.001 4.14771C13.001 4.14771 15.2648 3.36639 16.3667 4.78879C17.4685 6.2112 17.3283 9.67706 16.0061 11.7205H15.8658C15.8658 11.7205 16.587 8.03428 15.2848 7.47334C13.9826 6.93242 13.3416 7.13276 13.3416 7.13276L13.001 4.14771Z" fill="#2D2D2A"/>
</g>
</svg>
