<svg width="26" height="17" viewBox="0 0 26 17" fill="none" xmlns="http://www.w3.org/2000/svg">
<path d="M22.7629 8.50046C22.7628 10.967 21.8151 13.3393 20.1155 15.1269C19.9843 15.2615 19.986 15.4766 20.1192 15.6092L21.4179 16.896C21.4855 16.9631 21.577 17.0005 21.6723 17C21.7676 16.9994 21.8587 16.9609 21.9255 16.893C26.422 12.2011 26.422 4.79908 21.9255 0.107163C21.8587 0.0391973 21.7676 0.000634479 21.6724 7.75932e-06C21.5771 -0.00061896 21.4855 0.0367421 21.4179 0.103824L20.1192 1.39096C19.9858 1.52346 19.9841 1.73878 20.1155 1.87331C21.8152 3.66116 22.7629 6.03367 22.7629 8.50046Z" fill="#D30000"/>
<path d="M18.5389 8.50173C18.539 9.85694 18.0353 11.1638 17.1256 12.1684C16.9965 12.3042 16.9993 12.5183 17.1319 12.6507L18.4306 13.936C18.4987 14.0037 18.5911 14.0412 18.6871 14.0403C18.7832 14.0393 18.8748 13.9999 18.9415 13.9308C21.7871 10.8717 21.7871 6.13435 18.9415 3.07527C18.8748 3.00617 18.7831 2.96674 18.6871 2.96584C18.591 2.96493 18.4986 3.00262 18.4306 3.07044L17.1319 4.35536C16.9993 4.48781 16.9965 4.70184 17.1256 4.83771C18.0347 5.8416 18.5384 7.14741 18.5389 8.50173Z" fill="#D30000"/>
<path d="M2.53494 8.50046C2.53505 10.967 3.4828 13.3393 5.18231 15.1269C5.31352 15.2615 5.31187 15.4766 5.1786 15.6092L3.87996 16.896C3.81237 16.9631 3.72081 17.0005 3.62555 17C3.53029 16.9994 3.43918 16.9609 3.37238 16.893C-1.12413 12.2011 -1.12413 4.79908 3.37238 0.107163C3.43913 0.0391973 3.53021 0.000634479 3.62548 7.75932e-06C3.72074 -0.00061896 3.81232 0.0367421 3.87996 0.103824L5.1786 1.39096C5.31207 1.52346 5.31372 1.73878 5.18231 1.87331C3.48269 3.66116 2.53493 6.03367 2.53494 8.50046Z" fill="#D30000"/>
<path d="M6.75892 8.50173C6.75884 9.85694 7.26256 11.1638 8.17221 12.1684C8.30131 12.3042 8.29851 12.5183 8.1659 12.6507L6.86726 13.936C6.79914 14.0037 6.70674 14.0412 6.61071 14.0403C6.51469 14.0393 6.42307 13.9999 6.35634 13.9308C3.51078 10.8717 3.51078 6.13435 6.35634 3.07527C6.42307 3.00617 6.51474 2.96674 6.61079 2.96584C6.70684 2.96493 6.79924 3.00262 6.86726 3.07044L8.1659 4.35536C8.29851 4.48781 8.30131 4.70184 8.17221 4.83771C7.26316 5.8416 6.75948 7.14741 6.75892 8.50173Z" fill="#D30000"/>
<circle cx="12.6262" cy="8.51707" r="3.22996" fill="#D30000"/>
</svg>
