<svg width="29" height="29" viewBox="0 0 29 29" fill="none" xmlns="http://www.w3.org/2000/svg">
<path fill-rule="evenodd" clip-rule="evenodd" d="M17.6779 1.16458C16.6368 0.920262 15.5512 0.791016 14.4355 0.791016C6.63666 0.791016 0.314453 7.10564 0.314453 14.8951C0.314453 22.6846 6.63666 28.9992 14.4355 28.9992C17.463 28.9992 20.2681 28.0476 22.5671 26.4274L15.3144 26.4267L17.6779 1.16458Z" fill="#FF7373"/>
<ellipse cx="14.4358" cy="14.8942" rx="12.1037" ry="12.0892" fill="#DE2027"/>
<path fill-rule="evenodd" clip-rule="evenodd" d="M21.026 10.3439C21.2557 10.5822 21.4212 10.8787 21.5061 11.204C21.9947 13.244 21.8818 16.4658 21.5155 18.5845C21.4307 18.9097 21.2652 19.2063 21.0354 19.4445C20.8057 19.6828 20.5198 19.8545 20.2063 19.9425C19.0583 20.2672 14.4378 20.2672 14.4378 20.2672C14.4378 20.2672 9.81734 20.2672 8.66934 19.9425C8.35575 19.8545 8.06987 19.6828 7.84015 19.4445C7.61044 19.2063 7.44491 18.9097 7.36005 18.5845C6.86859 16.5534 7.00332 13.3296 7.35057 11.2138C7.43542 10.8886 7.60095 10.592 7.83066 10.3538C8.06038 10.1155 8.34627 9.94383 8.65985 9.85582C9.80785 9.53108 14.4283 9.52124 14.4283 9.52124C14.4283 9.52124 19.0488 9.52124 20.1968 9.84598C20.5104 9.934 20.7962 10.1057 21.026 10.3439ZM16.7907 14.8942L12.9577 17.1969V12.5915L16.7907 14.8942Z" fill="white"/>
</svg>
