<svg width="42" height="42" viewBox="0 0 42 42" fill="none" xmlns="http://www.w3.org/2000/svg">
<path fill-rule="evenodd" clip-rule="evenodd" d="M17.8788 0C8.00651 1.71594 0.5 10.3258 0.5 20.6889C0.5 32.2869 9.90202 41.6889 21.5 41.6889C31.4678 41.6889 39.8135 34.7443 41.9627 25.4294L15.5 25.4268L17.8788 0Z" fill="#FF9393"/>
<circle cx="21.5" cy="20.6875" r="18" fill="#D92129"/>
<path d="M21.5 11.6695C24.4371 11.6695 24.785 11.6807 25.9449 11.7336C27.0174 11.7825 27.5999 11.9617 27.9875 12.1124C28.5009 12.3119 28.8674 12.5503 29.2523 12.9352C29.6372 13.3201 29.8756 13.6866 30.0751 14.2C30.2258 14.5876 30.405 15.17 30.4539 16.2425C30.5068 17.4024 30.518 17.7504 30.518 20.6874C30.518 23.6246 30.5068 23.9725 30.4539 25.1324C30.405 26.2049 30.2258 26.7873 30.0751 27.1749C29.8756 27.6884 29.6372 28.0548 29.2523 28.4397C28.8674 28.8247 28.5009 29.063 27.9875 29.2626C27.5999 29.4132 27.0174 29.5924 25.9449 29.6413C24.7852 29.6942 24.4373 29.7055 21.5 29.7055C18.5627 29.7055 18.2148 29.6942 17.0551 29.6413C15.9826 29.5924 15.4001 29.4132 15.0125 29.2626C14.4991 29.063 14.1326 28.8247 13.7477 28.4397C13.3628 28.0548 13.1244 27.6884 12.9249 27.1749C12.7742 26.7873 12.595 26.2049 12.5461 25.1324C12.4932 23.9725 12.482 23.6246 12.482 20.6874C12.482 17.7504 12.4932 17.4024 12.5461 16.2425C12.595 15.17 12.7742 14.5876 12.9249 14.2C13.1244 13.6866 13.3628 13.3201 13.7477 12.9352C14.1326 12.5503 14.4991 12.3119 15.0125 12.1124C15.4001 11.9617 15.9826 11.7825 17.0551 11.7336C18.215 11.6807 18.5629 11.6695 21.5 11.6695ZM21.5 9.6875C18.5126 9.6875 18.138 9.70016 16.9647 9.7537C15.7939 9.8071 14.9943 9.99306 14.2946 10.265C13.5712 10.5461 12.9578 10.9222 12.3462 11.5337C11.7347 12.1453 11.3586 12.7587 11.0775 13.4821C10.8056 14.1817 10.6196 14.9814 10.5662 16.1522C10.5127 17.3255 10.5 17.7001 10.5 20.6874C10.5 23.6749 10.5127 24.0495 10.5662 25.2227C10.6196 26.3936 10.8056 27.1932 11.0775 27.8929C11.3586 28.6162 11.7347 29.2296 12.3462 29.8412C12.9578 30.4527 13.5712 30.8289 14.2946 31.1099C14.9943 31.3819 15.7939 31.5678 16.9647 31.6212C18.138 31.6748 18.5126 31.6874 21.5 31.6874C24.4874 31.6874 24.862 31.6748 26.0353 31.6212C27.2061 31.5678 28.0057 31.3819 28.7054 31.1099C29.4288 30.8289 30.0422 30.4527 30.6538 29.8412C31.2653 29.2296 31.6414 28.6162 31.9225 27.8929C32.1944 27.1932 32.3804 26.3936 32.4338 25.2227C32.4873 24.0495 32.5 23.6749 32.5 20.6874C32.5 17.7001 32.4873 17.3255 32.4338 16.1522C32.3804 14.9814 32.1944 14.1817 31.9225 13.4821C31.6414 12.7587 31.2653 12.1453 30.6538 11.5337C30.0422 10.9222 29.4288 10.5461 28.7054 10.265C28.0057 9.99306 27.2061 9.8071 26.0353 9.7537C24.862 9.70016 24.4874 9.6875 21.5 9.6875Z" fill="white"/>
<path d="M21.505 15.041C18.3853 15.041 15.8563 17.57 15.8563 20.6896C15.8563 23.8093 18.3853 26.3383 21.505 26.3383C24.6247 26.3383 27.1536 23.8093 27.1536 20.6896C27.1536 17.57 24.6247 15.041 21.505 15.041ZM21.505 24.3563C19.4799 24.3563 17.8383 22.7147 17.8383 20.6896C17.8383 18.6646 19.4799 17.023 21.505 17.023C23.53 17.023 25.1716 18.6646 25.1716 20.6896C25.1716 22.7147 23.53 24.3563 21.505 24.3563Z" fill="white"/>
<path d="M28.6963 14.8239C28.6963 15.5529 28.1053 16.1439 27.3763 16.1439C26.6473 16.1439 26.0563 15.5529 26.0563 14.8239C26.0563 14.0949 26.6473 13.5039 27.3763 13.5039C28.1053 13.5039 28.6963 14.0949 28.6963 14.8239Z" fill="white"/>
</svg>
