<svg width="20" height="20" viewBox="0 0 20 20" fill="none" xmlns="http://www.w3.org/2000/svg">
<rect width="20" height="20" rx="10" fill="white"/>
<path d="M9.07386 15V7.36364H10.2472V15H9.07386ZM9.67045 6.09091C9.44176 6.09091 9.24455 6.01302 9.07884 5.85724C8.91643 5.70147 8.83523 5.5142 8.83523 5.29545C8.83523 5.0767 8.91643 4.88944 9.07884 4.73366C9.24455 4.57789 9.44176 4.5 9.67045 4.5C9.89915 4.5 10.0947 4.57789 10.2571 4.73366C10.4228 4.88944 10.5057 5.0767 10.5057 5.29545C10.5057 5.5142 10.4228 5.70147 10.2571 5.85724C10.0947 6.01302 9.89915 6.09091 9.67045 6.09091Z" fill="black"/>
</svg>
