<svg width="150" height="39" viewBox="0 0 150 39" fill="none" xmlns="http://www.w3.org/2000/svg">
<g clip-path="url(#clip0_3944_1076)">
<path d="M58.0536 2.98943C57.2091 4.93893 55.7173 9.07936 55.7173 9.07936L53.889 3.8383C53.889 3.8383 52.9372 1.0657 49.8932 1.0657H46.0133V13.6614H49.8889V4.92088C49.8889 4.92088 50.3526 5.0068 51.2482 7.50532C52.1438 10.0038 53.4737 13.6846 53.4737 13.6846H56.0868C56.0868 13.6846 57.9653 13.5643 59.0556 10.6311L60.4642 6.85062C60.4642 6.85062 61.166 4.78857 61.8115 4.54456V13.6571H65.655V1.06141H61.8115C61.8115 1.06141 58.8938 1.04079 58.0536 2.98943ZM78.288 9.93683C78.288 9.93683 74.8208 4.77568 74.3017 3.90962C73.4148 2.72136 72.3167 1.06141 70.4426 1.06141H66.5523V13.6571H70.4382V4.78083C70.4382 4.78083 73.9036 9.94456 74.4254 10.8098C75.3149 11.9972 76.3143 13.6571 78.2837 13.6571H82.1376V1.06141H78.288V9.93683ZM96.3038 10.4197L96.2753 10.3913H90.2988C89.497 10.3913 88.728 10.0751 88.1611 9.51207C87.5941 8.94909 87.2756 8.18552 87.2756 7.38933C87.2756 6.59315 87.5941 5.82958 88.1611 5.26659C88.728 4.70361 89.497 4.38733 90.2988 4.38733H96.0391C96.521 3.85893 97.0376 3.44222 97.3975 3.08737L99.4803 1.06055H89.4863C85.9258 1.06055 83.0392 3.89587 83.0392 7.38761C83.0392 10.8794 85.9258 13.7164 89.4863 13.7164H99.6057L96.3038 10.4197Z" fill="#58595B"/>
<path d="M24.1418 2.85233C23.4072 2.31533 22.8439 1.61853 22.1759 1.04803C21.4409 0.361556 20.4662 -0.0147628 19.4572 -0.00162011C18.4482 0.0115226 17.4838 0.413099 16.7671 1.11848L16.7005 1.18464C16.5136 1.34015 16.3284 1.50855 16.1433 1.67953L10.6107 7.12421C10.6003 7.16975 10.5934 7.21615 10.5839 7.26254C10.1564 9.32889 11.521 10.8393 11.521 10.8393L14.5979 13.9728L19.5256 18.9028L21.2051 17.2317L24.8029 13.691L27.5259 11.055C27.5874 11.0017 27.6479 10.9536 27.705 10.9029C27.7621 10.8522 27.866 10.7783 27.9888 10.6941C28.6093 10.2716 29.3303 10.0175 30.0802 9.95696C30.4581 9.92493 30.8386 9.94459 31.2111 10.0154C31.3253 10.0394 31.4023 10.0601 31.4491 10.0738C31.457 10.0762 31.4651 10.078 31.4733 10.079C31.4811 10.0841 31.4837 10.0841 31.4837 10.0841L24.1418 2.85233Z" fill="#FDD600"/>
<path d="M37.0145 15.5236L31.4767 10.0764C31.4685 10.0754 31.4604 10.0736 31.4525 10.0712C31.4058 10.0575 31.3288 10.0368 31.2146 10.0128C30.8421 9.94199 30.4615 9.92233 30.0837 9.95435C29.3337 10.0149 28.6128 10.269 27.9923 10.6915C27.8694 10.7775 27.7734 10.8488 27.7085 10.9003C27.6436 10.9519 27.5908 10.9991 27.5294 11.0524L24.8064 13.6884L21.2085 17.2291L19.5291 18.9002L24.115 23.368L27.5882 26.8357C27.5884 26.8371 27.5888 26.8384 27.5896 26.8396C27.5903 26.8408 27.5913 26.8418 27.5925 26.8426C27.7292 26.9869 28.1636 27.4981 28.4578 28.475C28.6632 29.1773 28.6974 29.918 28.5573 30.6359C28.5461 30.6754 28.54 30.7029 28.54 30.7038H28.5461L29.2383 30.0053L33.8242 25.4043L37.5207 21.7338C38.1183 21.1417 38.5026 20.3704 38.6144 19.5395C38.6466 19.3367 38.6648 19.1321 38.6689 18.9269C38.6992 17.4413 37.9542 16.4962 37.0145 15.5236Z" fill="#213E7A"/>
<path d="M28.4604 28.475C28.1662 27.5015 27.7319 26.9903 27.5951 26.8425C27.5908 26.8425 27.59 26.8356 27.5874 26.8339L24.1142 23.3662L19.5282 18.8984L15.0288 23.4521L11.5305 26.9164C11.075 27.3212 10.5364 27.623 9.95203 27.801C9.36763 27.979 8.75129 28.0289 8.14555 27.9474C8.02441 27.9294 7.89981 27.9096 7.77002 27.8856L14.8722 34.9928C15.7513 35.8631 16.9843 37.6064 19.1388 37.7783C19.7373 37.8689 20.3489 37.8189 20.9244 37.632C21.4998 37.4452 22.023 37.1268 22.452 36.7026L26.755 32.4229L28.5149 30.7329L28.5426 30.7054C28.5426 30.7054 28.5487 30.6771 28.5599 30.6375C28.7002 29.9191 28.6661 29.1777 28.4604 28.475Z" fill="#EA3E24"/>
<path d="M27.5908 26.8398C27.5908 26.8398 27.5908 26.8443 27.5977 26.8473C27.5959 26.847 27.5942 26.8461 27.593 26.8447C27.5917 26.8434 27.591 26.8417 27.5908 26.8398Z" fill="#EA3E24"/>
<path d="M14.5979 13.9736L11.521 10.8401C11.521 10.8401 10.1564 9.32968 10.5839 7.26333C10.5934 7.21693 10.6003 7.17054 10.6107 7.125L3.32079 14.2863C2.4088 15.1928 0.53894 16.485 0.500868 18.7988C0.478371 20.2861 1.21472 21.2449 2.14489 22.2295L7.64802 27.761L7.7683 27.8787V27.8839C7.89809 27.9079 8.02269 27.9277 8.14382 27.9457C8.74956 28.0272 9.3659 27.9773 9.95031 27.7993C10.5347 27.6213 11.0733 27.3195 11.5288 26.9147L15.0236 23.4599L19.523 18.9062L14.5979 13.9736Z" fill="#3F9143"/>
<path d="M9.27466 18.9039C9.27466 13.3312 13.8606 8.81445 19.5255 8.81445C25.1879 8.81445 29.7747 13.3312 29.7747 18.9039C29.7747 24.4783 25.1888 28.9934 19.5255 28.9934C13.8632 28.9934 9.27466 24.4783 9.27466 18.9039ZM9.9911 18.9039C9.98987 20.1393 10.2364 21.3625 10.7164 22.5022C11.1964 23.6419 11.9003 24.6753 12.7868 25.542C14.5799 27.3067 17.0035 28.2952 19.5281 28.2914C22.0527 28.2958 24.4762 27.3072 26.2686 25.542C27.1527 24.674 27.8543 23.6402 28.3324 22.5006C28.8106 21.361 29.0559 20.1384 29.0539 18.9039C29.0543 17.6695 28.8079 16.4473 28.3289 15.3083C27.8498 14.1692 27.1478 13.1359 26.2634 12.2684C24.4716 10.5023 22.0477 9.51358 19.523 9.51899C16.9981 9.5142 14.5742 10.5028 12.7816 12.2684C11.8962 13.1353 11.1933 14.1684 10.7138 15.3076C10.2343 16.4467 9.98776 17.6692 9.98851 18.9039H9.9911Z" fill="white"/>
<path d="M29.5117 18.9031C29.5119 20.8647 28.9262 22.7823 27.8288 24.4134C26.7313 26.0445 25.1714 27.3158 23.3462 28.0666C21.5211 28.8173 19.5128 29.0137 17.5752 28.631C15.6377 28.2483 13.8579 27.3036 12.4611 25.9165C11.0642 24.5293 10.113 22.762 9.72778 20.838C9.34252 18.9141 9.54051 16.9199 10.2967 15.1076C11.0529 13.2954 12.3333 11.7466 13.9761 10.657C15.6188 9.56738 17.5501 8.98599 19.5256 8.98633C20.8371 8.98622 22.1358 9.24265 23.3475 9.74098C24.5591 10.2393 25.6601 10.9698 26.5874 11.8907C27.5147 12.8116 28.2503 13.9048 28.752 15.108C29.2538 16.3112 29.5119 17.6008 29.5117 18.9031Z" fill="url(#paint0_radial_3944_1076)"/>
<path d="M21.0538 18.7587C21.0531 19.0564 20.9635 19.3472 20.7964 19.5944C20.6293 19.8415 20.3922 20.0339 20.1149 20.1472C19.8377 20.2606 19.5329 20.2897 19.239 20.2311C18.9451 20.1724 18.6753 20.0285 18.4637 19.8176C18.2522 19.6067 18.1083 19.3382 18.0504 19.0461C17.9925 18.754 18.0231 18.4515 18.1383 18.1767C18.2536 17.9019 18.4483 17.6671 18.6978 17.5022C18.9474 17.3373 19.2406 17.2495 19.5404 17.25C19.7396 17.2502 19.9368 17.2894 20.1207 17.3654C20.3046 17.4414 20.4716 17.5526 20.6121 17.6928C20.7527 17.8329 20.8641 17.9992 20.9398 18.1821C21.0156 18.365 21.0543 18.561 21.0538 18.7587Z" fill="white"/>
<path d="M29.6259 18.9269C29.6259 20.8891 29.0399 22.8072 27.9421 24.4388C26.8442 26.0703 25.2838 27.3419 23.4581 28.0928C21.6325 28.8437 19.6235 29.0401 17.6854 28.6573C15.7473 28.2745 13.967 27.3296 12.5697 25.9422C11.1724 24.5547 10.2208 22.7869 9.8353 20.8624C9.44978 18.9379 9.64764 16.9431 10.4039 15.1303C11.1601 13.3175 12.4407 11.768 14.0837 10.6779C15.7268 9.58772 17.6585 9.00586 19.6346 9.00586C20.9468 9.00541 22.2463 9.26172 23.4587 9.76014C24.6711 10.2586 25.7727 10.9893 26.7006 11.9107C27.6284 12.832 28.3644 13.9259 28.8663 15.1298C29.3683 16.3336 29.6264 17.6239 29.6259 18.9269Z" fill="url(#paint1_radial_3944_1076)"/>
<path d="M62.7018 27.6253C62.6733 25.4602 63.313 23.3384 64.5351 21.5451C65.7571 19.7518 67.5028 18.373 69.5375 17.5943C70.9392 17.0392 72.4835 16.7617 74.1702 16.7617C75.8367 16.7617 77.376 17.0392 78.7881 17.5943C80.1447 18.1148 81.3832 18.8988 82.4309 19.9003C83.4474 20.883 84.256 22.0573 84.8096 23.3543C85.9449 26.0906 85.9449 29.1617 84.8096 31.8981C84.2562 33.1949 83.4475 34.3689 82.4309 35.3511C81.3834 36.3532 80.145 37.1375 78.7881 37.6581C77.376 38.2131 75.8367 38.4909 74.1702 38.4915C72.4829 38.4915 70.9387 38.2137 69.5375 37.6581C67.5062 36.8738 65.7639 35.4935 64.5426 33.7011C63.3214 31.9087 62.6793 29.7893 62.7018 27.6253ZM68.3382 27.6253C68.3295 28.4053 68.4888 29.178 68.8055 29.8918C69.408 31.2577 70.5294 32.332 71.9257 32.881C73.365 33.4457 74.9667 33.4457 76.406 32.881C77.0997 32.6068 77.7343 32.2038 78.2759 31.6936C78.8183 31.1823 79.2527 30.569 79.5539 29.8893C79.8622 29.173 80.0212 28.4021 80.0212 27.6232C80.0212 26.8442 79.8622 26.0733 79.5539 25.357C79.2521 24.6777 78.8178 24.0644 78.2759 23.5527C77.7343 23.0425 77.0997 22.6395 76.406 22.3653C74.9667 21.8006 73.365 21.8006 71.9257 22.3653C71.2341 22.6393 70.603 23.0447 70.0679 23.5588C69.5338 24.0738 69.1048 24.6865 68.8046 25.3631C68.4888 26.0756 68.3295 26.8468 68.3374 27.6253H68.3382Z" fill="#213E7A"/>
<path d="M60.0412 19.1363C58.8038 17.9335 57.0214 17.332 54.6938 17.332H46.1172V37.9139H48.758C48.758 37.9139 51.5052 37.6639 51.5052 35.4738V31.0919H54.6938C57.0214 31.0919 58.8038 30.4905 60.0412 29.2876C61.2785 28.0848 61.8972 26.3925 61.8972 24.2107C61.8972 22.0289 61.2785 20.3375 60.0412 19.1363ZM53.292 26.7831H51.5052V21.6477H53.2929C55.2709 21.6477 56.2602 22.5032 56.2608 24.2141C56.2614 25.9251 55.2721 26.7802 53.2929 26.7797L53.292 26.7831Z" fill="#213E7A"/>
<path d="M103.274 17.3359V21.8673H107.7V37.9152H110.365C110.365 37.9152 112.835 37.6867 113.088 35.7939V21.8673H117.515V17.3359H103.274Z" fill="#213E7A"/>
<path d="M97.549 29.4825C99.0338 29.1389 100.156 28.4801 100.916 27.5064C101.675 26.5326 102.056 25.2633 102.057 23.6985C102.063 22.861 101.919 22.0292 101.631 21.242C101.35 20.4633 100.901 19.7554 100.314 19.1681C99.7272 18.5808 99.0179 18.1285 98.236 17.8431C97.3742 17.5057 96.3664 17.3373 95.2127 17.3379H86.8265V37.9146H89.463C89.463 37.9146 92.2111 37.6646 92.2111 35.4745V30.0015L97.356 37.9146H104.064L97.549 29.4825ZM95.68 25.8791C95.1118 26.3161 94.2964 26.5349 93.2339 26.5355H92.2189V21.4577H93.2365C94.299 21.4577 95.1144 21.6759 95.6826 22.1124C96.2508 22.5489 96.5349 23.1769 96.5349 23.9966C96.5326 24.8146 96.2476 25.442 95.68 25.8791Z" fill="#213E7A"/>
<path d="M149.5 35.4786V33.3873H143.039V17.3359H137.651V37.9152H146.753C146.753 37.9152 149.5 37.6686 149.5 35.4786Z" fill="#213E7A"/>
<path d="M121.235 36.0399L121.83 34.3215H129.507L129.897 35.4487C129.908 35.49 129.922 35.5252 129.934 35.5656L130.086 36.0046C130.737 37.595 132.017 37.851 132.488 37.888H136.468L128.599 17.3594H122.732L114.858 37.888H118.838C119.316 37.8476 120.578 37.595 121.235 36.0399ZM125.669 23.4278L128.082 30.261H123.255L125.669 23.4278Z" fill="#213E7B"/>
</g>
<defs>
<radialGradient id="paint0_radial_3944_1076" cx="0" cy="0" r="1" gradientUnits="userSpaceOnUse" gradientTransform="translate(19.5239 18.9022) scale(9.98699 9.91676)">
<stop stop-color="white"/>
<stop offset="0.05" stop-color="white" stop-opacity="0.9"/>
<stop offset="0.15" stop-color="white" stop-opacity="0.69"/>
<stop offset="0.26" stop-color="white" stop-opacity="0.51"/>
<stop offset="0.37" stop-color="white" stop-opacity="0.35"/>
<stop offset="0.48" stop-color="white" stop-opacity="0.22"/>
<stop offset="0.6" stop-color="white" stop-opacity="0.12"/>
<stop offset="0.72" stop-color="white" stop-opacity="0.05"/>
<stop offset="0.85" stop-color="white" stop-opacity="0.01"/>
<stop offset="1" stop-color="white" stop-opacity="0"/>
</radialGradient>
<radialGradient id="paint1_radial_3944_1076" cx="0" cy="0" r="1" gradientUnits="userSpaceOnUse" gradientTransform="translate(7266.13 8560.56) scale(2307.19 2290.97)">
<stop stop-color="white"/>
<stop offset="0.05" stop-color="white" stop-opacity="0.9"/>
<stop offset="0.15" stop-color="white" stop-opacity="0.69"/>
<stop offset="0.26" stop-color="white" stop-opacity="0.51"/>
<stop offset="0.37" stop-color="white" stop-opacity="0.35"/>
<stop offset="0.48" stop-color="white" stop-opacity="0.22"/>
<stop offset="0.6" stop-color="white" stop-opacity="0.12"/>
<stop offset="0.72" stop-color="white" stop-opacity="0.05"/>
<stop offset="0.85" stop-color="white" stop-opacity="0.01"/>
<stop offset="1" stop-color="white" stop-opacity="0"/>
</radialGradient>
<clipPath id="clip0_3944_1076">
<rect width="149" height="38.4917" fill="white" transform="translate(0.5)"/>
</clipPath>
</defs>
</svg>
