<svg width="82" height="16" viewBox="0 0 82 16" fill="none" xmlns="http://www.w3.org/2000/svg">
<path d="M53.9965 8.30106C52.7714 6.68001 52.7213 4.39774 53.8652 2.34451L53.9934 2.11775L54.119 2.34543C54.1825 2.45727 54.2708 2.59091 54.3665 2.71751C54.798 3.28848 55.2941 3.64355 55.6927 3.66852C55.9139 3.68211 56.115 3.59657 56.3059 3.41382C56.5011 3.22555 56.5887 2.95066 56.5532 2.65807C56.5183 2.37197 56.3915 2.08693 56.1776 1.80393C55.7743 1.2702 55.0604 0.749872 53.9975 0.214243L53.6184 0.0195596L54.0659 0.00331889C54.6246 -0.0166029 56.0675 0.0283302 57.3721 0.850279C57.784 1.1106 58.1435 1.44109 58.438 1.83083C58.5524 1.98226 58.6602 2.1472 58.7538 2.31572C58.8989 2.57471 58.9935 2.84498 59.0905 3.10725C59.1914 3.39145 59.289 3.66021 59.4403 3.91616C59.4735 3.97132 59.5117 4.02745 59.5511 4.07959C59.8551 4.48174 60.2953 4.73491 60.7551 4.77396C61.2717 4.81565 61.7625 4.47142 61.9216 4.12376C62.0523 3.84461 61.9897 3.49383 61.7571 3.18601C61.5357 2.89308 61.0175 2.49773 60.5933 2.36618L60.8531 2.34711C60.9734 2.33888 60.9727 2.3324 61.1154 2.33701C61.2631 2.34258 61.5314 2.37384 61.6725 2.40987C62.221 2.55512 62.7032 2.86938 63.0296 3.30133C63.1741 3.49248 63.2817 3.70182 63.351 3.91638C63.5071 4.41872 63.4543 4.84004 63.1784 5.2453C63.1224 5.32745 63.0595 5.40615 62.9893 5.49188C62.7763 5.75708 62.5578 6.03178 62.6321 6.30866C62.6456 6.35996 62.672 6.41167 62.7095 6.46132C62.8014 6.58296 62.9468 6.67484 63.0903 6.70288C63.1893 6.72222 63.2849 6.70916 63.374 6.66521C63.5308 6.58792 63.6378 6.28298 63.4178 5.94166L63.2034 5.60778L63.6091 5.79282C63.9706 5.95868 64.2767 6.19622 64.4868 6.47425C64.727 6.79201 64.8372 7.14997 64.8017 7.50485C64.6789 8.75465 63.6031 9.71455 61.7737 10.2077C59.9616 10.6958 57.7106 10.62 56.2958 10.0262C55.3267 9.61468 54.5518 9.03587 53.9965 8.30106Z" fill="white"/>
<path d="M53.3237 10.2166C53.3237 13.1344 55.689 15.4997 58.6068 15.4997C61.5245 15.4997 63.8898 13.1344 63.8898 10.2166C63.8898 7.29889 61.5245 4.93359 58.6068 4.93359C55.689 4.93359 53.3237 7.29889 53.3237 10.2166Z" fill="white"/>
<path d="M54.22 12.5882L54.2445 12.6291C54.4651 13.0254 54.743 13.3972 55.078 13.7363C55.6827 14.3411 56.4019 14.7537 57.1659 14.9825L57.17 14.9907L57.2721 15.0152C57.2803 15.0152 57.3089 15.0234 57.3539 15.0357C57.7052 15.1255 58.0607 15.1787 58.4203 15.1909C58.7757 15.2154 59.1557 15.2073 59.4785 15.1215C59.4867 15.1174 59.4949 15.1174 59.503 15.1133C60.4714 14.9376 61.3989 14.48 62.1425 13.7323C62.3754 13.4994 62.5756 13.2542 62.7513 12.9927L62.7799 12.9519C62.7799 12.9519 62.7799 12.9519 62.7799 12.9478L62.8044 12.9069C62.8085 12.8987 62.8371 12.8579 62.8821 12.7803C63.213 12.2287 63.4296 11.628 63.5317 11.0111C63.5399 10.9743 63.5481 10.9334 63.5521 10.8926L63.5685 10.7986L63.5603 10.7904C63.7197 9.4666 63.3478 8.08966 62.4449 7.0069L62.4408 6.99873C62.167 6.631 61.7911 6.32456 61.4602 6.09984C61.2681 5.96909 61.072 5.8506 60.8677 5.74437C60.7656 5.69125 60.7002 5.66265 60.6879 5.65448L60.598 5.61362H60.594C59.4867 5.13557 58.2405 5.07428 57.1005 5.43384L57.0883 5.42567L56.978 5.4747C56.978 5.4747 56.9739 5.47878 56.9698 5.47878C56.4059 5.67491 55.8748 5.97318 55.3967 6.37359C55.3068 6.44305 55.221 6.5166 55.1516 6.58606C55.1271 6.61057 55.1025 6.63509 55.0821 6.6596C54.0647 7.67699 53.5785 9.0335 53.6275 10.3696L53.6235 10.3737L53.6316 10.4717C53.6357 10.5167 53.6398 10.5616 53.6439 10.6025C53.6888 11.1255 53.8114 11.6444 54.0198 12.1347C54.1219 12.4207 54.2118 12.576 54.22 12.5882ZM55.7726 11.1786L56.7655 10.8762L58.3222 12.0611L58.265 13.1684L57.0433 13.7118L55.5397 12.5637L55.7726 11.1786ZM58.6859 13.1807L58.7431 12.0734L60.2753 11.0111L61.3989 11.4401L61.5705 12.7394L59.8626 13.8099L58.6859 13.1807ZM61.5337 11.0478L60.4469 10.6311L59.8912 8.78018L60.6675 7.93031L61.8851 8.24493L62.4694 10.1081L61.5337 11.0478ZM60.3488 7.66065L59.548 8.53094L57.7012 8.49008L57.1455 7.51764L57.8278 6.41445L59.7564 6.47574L60.3488 7.66065ZM56.7941 7.74236L57.3416 8.69846L56.7287 10.4513L55.6378 10.7823L54.7512 9.7853L55.4744 7.89354L56.7941 7.74236ZM55.3722 13.4422C55.1638 13.2338 54.9841 13.0131 54.8247 12.7762L55.2415 12.8538L56.7492 14.006L56.9453 14.4636C56.3692 14.243 55.8339 13.9039 55.3722 13.4422ZM61.8402 13.4422C61.2681 14.0142 60.5817 14.4023 59.8503 14.6066C59.9116 14.4882 59.9893 14.3451 60.0791 14.1654L61.7789 13.099L62.1793 13.0581C62.0771 13.1888 61.9627 13.3155 61.8402 13.4422ZM63.1722 10.3369L62.8616 9.961L62.3264 8.25718L62.4081 7.66473C62.9433 8.46965 63.2008 9.40532 63.1722 10.3369ZM60.0873 5.8792L59.7318 6.05898L57.8646 6.00178L57.5296 5.76071C58.3753 5.5605 59.2661 5.60136 60.0873 5.8792ZM55.0535 7.3256L55.0862 7.74236L54.3548 9.65455L54.0443 9.96508C54.0892 9.02533 54.4284 8.09783 55.0535 7.3256Z" fill="#7F1537"/>
<path d="M0 15.1821V5.73047H3.72898C4.44586 5.73047 5.05658 5.86738 5.56117 6.14121C6.06575 6.41196 6.45034 6.78886 6.71494 7.2719C6.98261 7.75187 7.11645 8.30568 7.11645 8.93333C7.11645 9.56098 6.98107 10.1148 6.71032 10.5948C6.43957 11.0747 6.04729 11.4485 5.53348 11.7162C5.02274 11.9839 4.40432 12.1177 3.67822 12.1177H1.30145V10.5163H3.35516C3.73975 10.5163 4.05665 10.4502 4.30587 10.3179C4.55816 10.1825 4.74584 9.99634 4.86891 9.75943C4.99505 9.51945 5.05812 9.24408 5.05812 8.93333C5.05812 8.61951 4.99505 8.34568 4.86891 8.11185C4.74584 7.87494 4.55816 7.69188 4.30587 7.56265C4.05358 7.43036 3.7336 7.36421 3.34593 7.36421H1.99833V15.1821H0Z" fill="white"/>
<path d="M8.41444 15.1821V5.73047H14.7832V7.37805H10.4128V9.63021H14.4556V11.2778H10.4128V13.5346H14.8017V15.1821H8.41444Z" fill="white"/>
<path d="M24.528 7.37805V5.73047H32.2905V7.37805H29.3969V15.1821H27.4216V7.37805H24.528Z" fill="white"/>
<path d="M34.0431 15.1821H31.9017L35.1646 5.73047H37.7398L40.998 15.1821H38.8566L36.4891 7.89032H36.4153L34.0431 15.1821ZM33.9093 11.467H38.9674V13.0269H33.9093V11.467Z" fill="white"/>
<path d="M45.1435 15.1821V5.73047H48.9279C49.6232 5.73047 50.2032 5.83354 50.6678 6.03968C51.1324 6.24582 51.4816 6.53195 51.7154 6.89808C51.9492 7.26114 52.0661 7.67957 52.0661 8.15338C52.0661 8.52259 51.9923 8.84718 51.8446 9.12717C51.6969 9.40407 51.4939 9.63175 51.2354 9.8102C50.9801 9.98557 50.6878 10.1102 50.3586 10.184V10.2763C50.7185 10.2917 51.0554 10.3932 51.3693 10.5809C51.6862 10.7686 51.9431 11.0317 52.14 11.3701C52.3369 11.7055 52.4353 12.1054 52.4353 12.57C52.4353 13.0715 52.3107 13.5192 52.0615 13.913C51.8154 14.3037 51.4508 14.613 50.9677 14.8406C50.4847 15.0683 49.8894 15.1821 49.1817 15.1821H45.1435ZM47.1418 13.5484H48.771C49.3279 13.5484 49.734 13.4423 49.9894 13.23C50.2447 13.0146 50.3724 12.7285 50.3724 12.3716C50.3724 12.11 50.3093 11.8793 50.1832 11.6793C50.057 11.4793 49.877 11.3224 49.6432 11.2086C49.4125 11.0947 49.1371 11.0378 48.8171 11.0378H47.1418V13.5484ZM47.1418 9.68559H48.6233C48.8971 9.68559 49.1402 9.6379 49.3525 9.54252C49.5678 9.44407 49.7371 9.30562 49.8601 9.12717C49.9863 8.94872 50.0493 8.73488 50.0493 8.48567C50.0493 8.14415 49.9278 7.86879 49.6848 7.65957C49.4448 7.45035 49.1033 7.34575 48.6602 7.34575H47.1418V9.68559Z" fill="white"/>
<path d="M65.6377 15.1821V5.73047H67.6361V13.5346H71.6881V15.1821H65.6377Z" fill="white"/>
<path d="M74.8818 15.1821H72.7404L76.0032 5.73047H78.5784L81.8367 15.1821H79.6953L77.3277 7.89032H77.2539L74.8818 15.1821ZM74.7479 11.467H79.806V13.0269H74.7479V11.467Z" fill="white"/>
<path d="M23.0633 12.5037C23.0633 13.0446 22.9265 13.5167 22.653 13.9202C22.3795 14.3237 21.9824 14.637 21.4619 14.8602C20.9501 15.0748 20.3237 15.1821 19.5826 15.1821C19.2561 15.1821 18.9341 15.1607 18.6164 15.1178C18.3076 15.0748 18.0077 15.0147 17.7165 14.9375C17.4342 14.8516 17.1651 14.7486 16.9092 14.6284V12.8128C17.3592 13.0016 17.8224 13.1776 18.2988 13.3407C18.7841 13.4953 19.2649 13.5725 19.7414 13.5725C20.0678 13.5725 20.3281 13.5296 20.5222 13.4438C20.7252 13.3579 20.8707 13.242 20.959 13.0961C21.056 12.9501 21.1045 12.7827 21.1045 12.5939C21.1045 12.3621 21.0207 12.1646 20.8531 12.0015C20.6943 11.8384 20.4781 11.6882 20.2046 11.5508C19.9311 11.4049 19.6179 11.2504 19.2649 11.0873C19.0444 10.9843 18.8061 10.8641 18.5503 10.7267C18.2944 10.5808 18.0474 10.4048 17.8091 10.1988C17.5797 9.98415 17.39 9.72661 17.2401 9.42615C17.0901 9.12569 17.0151 8.76514 17.0151 8.34449C17.0151 7.79507 17.143 7.32721 17.3989 6.9409C17.6636 6.54601 18.0341 6.24555 18.5106 6.03952C18.9958 5.83348 19.5649 5.73047 20.2178 5.73047C20.7119 5.73047 21.1795 5.78627 21.6207 5.89787C22.0707 6.00947 22.5383 6.16829 23.0236 6.37432L22.3751 7.89379C21.9427 7.7221 21.5545 7.58904 21.2104 7.49461C20.8663 7.40018 20.5134 7.35296 20.1517 7.35296C19.9046 7.35296 19.6929 7.39159 19.5164 7.46886C19.3399 7.54612 19.2032 7.65343 19.1061 7.79078C19.0179 7.92813 18.9738 8.09124 18.9738 8.2801C18.9738 8.49472 19.04 8.67929 19.1723 8.83381C19.3046 8.97975 19.5032 9.1214 19.7679 9.25875C20.0325 9.39611 20.3634 9.55921 20.7604 9.74808C21.2457 9.97128 21.656 10.2031 21.9913 10.4434C22.3354 10.6838 22.6 10.9671 22.7853 11.2933C22.9706 11.6195 23.0633 12.023 23.0633 12.5037Z" fill="white"/>
</svg>
