<svg width="38" height="23" viewBox="0 0 38 23" fill="none" xmlns="http://www.w3.org/2000/svg">
<path d="M18.9984 18.8779L0 19.6578L0.388121 20.8832L16.2424 21.8858C16.9754 22.5953 17.966 22.9934 18.9984 22.9934C20.0308 22.9934 21.0213 22.5953 21.7544 21.8858L37.6119 20.8832L38 19.6578L18.9984 18.8779Z" fill="#1B2B7E"/>
<path d="M7.5015 1.66754H5.27062L0 19.6576L16.6794 20.7143C17.301 21.2993 18.135 21.6198 18.9984 21.6055V3.22082C18.9984 3.22082 14.2398 1.27285 7.5015 1.66754Z" fill="#1B2B7E"/>
<path d="M30.4917 1.66754H32.7291L37.9997 19.6576L21.3203 20.7143C20.6978 21.3 19.8626 21.6206 18.998 21.6055V3.22082C18.998 3.22082 23.7566 1.27285 30.4917 1.66754Z" fill="#1B2B7E"/>
<path d="M3.33691 17.0384L3.7707 18.6044C3.7707 18.6044 12.3942 17.4267 18.9987 20.3709C18.9987 20.3709 24.5107 16.9874 34.1811 18.5948L34.6638 17.0288L19.0085 12.6841L3.33691 17.0384Z" fill="white"/>
<path d="M3.52246 17.7097C3.52246 17.7097 13.8745 15.7013 18.9984 19.6577C18.9984 19.6577 24.9441 15.4244 34.396 17.9039" stroke="#1B2B7E" stroke-width="0.68" stroke-miterlimit="10" stroke-linecap="round"/>
<path d="M7.87955 0.292647C7.87955 0.292647 14.2624 -1.12377 18.9981 2.27562V18.8779C18.9981 18.8779 14.1645 14.1417 3.34277 17.0381L7.87955 0.292647Z" fill="white"/>
<path d="M30.1198 0.292647C30.1198 0.292647 23.737 -1.12377 18.998 2.27562V18.8779C18.998 18.8779 23.8349 14.1417 34.6534 17.0381L30.1198 0.292647Z" fill="white"/>
<path d="M3.33691 17.0381C3.33691 17.0381 13.8749 14.7018 18.9922 18.655C18.9922 18.655 25.1891 14.5617 34.6475 17.0381" stroke="#1B2B7E" stroke-width="0.68" stroke-miterlimit="10" stroke-linecap="round"/>
<path d="M18.998 18.6553V2.27588" stroke="#1B2B7E" stroke-width="0.68" stroke-miterlimit="10" stroke-linecap="round"/>
<path d="M20.3486 3.86709C20.3486 3.86709 23.2546 1.61675 28.8873 2.27562" stroke="#1B2B7E" stroke-width="0.68" stroke-miterlimit="10" stroke-linecap="round"/>
<path d="M20.4951 5.7546C20.4951 5.7546 23.5479 3.41513 29.1806 4.074" stroke="#1B2B7E" stroke-width="0.68" stroke-miterlimit="10" stroke-linecap="round"/>
<path d="M20.4951 7.46716C20.4951 7.46716 24.0502 5.09268 29.6796 5.75473" stroke="#1B2B7E" stroke-width="0.68" stroke-miterlimit="10" stroke-linecap="round"/>
<path d="M20.6484 9.11572C20.6484 9.11572 24.484 6.80808 30.1069 7.46696" stroke="#1B2B7E" stroke-width="0.68" stroke-miterlimit="10" stroke-linecap="round"/>
<path d="M20.7891 10.8917C23.7909 9.34595 27.203 8.72657 30.5736 9.1156" stroke="#1B2B7E" stroke-width="0.68" stroke-miterlimit="10" stroke-linecap="round"/>
<path d="M20.7891 12.6932C23.9849 11.3294 27.491 10.8059 30.9585 11.175" stroke="#1B2B7E" stroke-width="0.68" stroke-miterlimit="10" stroke-linecap="round"/>
<path d="M20.7891 14.7178C20.7891 14.7178 25.6813 12.2319 31.4999 13.2823" stroke="#1B2B7E" stroke-width="0.68" stroke-miterlimit="10" stroke-linecap="round"/>
<path d="M17.4391 3.86709C17.4391 3.86709 14.533 1.61675 8.90039 2.27562" stroke="#1B2B7E" stroke-width="0.68" stroke-miterlimit="10" stroke-linecap="round"/>
<path d="M17.286 5.7546C17.286 5.7546 14.2332 3.41513 8.60059 4.074" stroke="#1B2B7E" stroke-width="0.68" stroke-miterlimit="10" stroke-linecap="round"/>
<path d="M17.2863 7.46716C17.2863 7.46716 13.7378 5.09268 8.1084 5.75473" stroke="#1B2B7E" stroke-width="0.68" stroke-miterlimit="10" stroke-linecap="round"/>
<path d="M17.1391 9.11572C17.1391 9.11572 13.3035 6.80808 7.68066 7.46696" stroke="#1B2B7E" stroke-width="0.68" stroke-miterlimit="10" stroke-linecap="round"/>
<path d="M16.9984 10.8917C13.9966 9.34595 10.5844 8.72657 7.21387 9.1156" stroke="#1B2B7E" stroke-width="0.68" stroke-miterlimit="10" stroke-linecap="round"/>
<path d="M16.9995 12.6932C13.8036 11.3294 10.2976 10.8059 6.83008 11.175" stroke="#1B2B7E" stroke-width="0.68" stroke-miterlimit="10" stroke-linecap="round"/>
<path d="M16.9989 14.7178C16.9989 14.7178 12.1066 12.2319 6.28809 13.2823" stroke="#1B2B7E" stroke-width="0.68" stroke-miterlimit="10" stroke-linecap="round"/>
</svg>
