<svg width="28" height="28" viewBox="0 0 28 28" fill="none" xmlns="http://www.w3.org/2000/svg">
<path d="M25.6735 22.745L20.9987 18.0709C20.894 17.9665 20.7697 17.8837 20.6329 17.8273C20.4961 17.771 20.3496 17.7422 20.2016 17.7425H19.4334C20.9602 15.7862 21.6832 13.3213 21.455 10.8504C21.2268 8.37946 20.0646 6.08859 18.2053 4.4449C16.346 2.8012 13.9297 1.92845 11.449 2.00459C8.96833 2.08074 6.61011 3.10006 4.85517 4.8547C3.10024 6.60934 2.08076 8.96718 2.0046 11.4475C1.92843 13.9277 2.80133 16.3437 4.4453 18.2026C6.08927 20.0616 8.38051 21.2236 10.8518 21.4518C13.3232 21.68 15.7885 20.9571 17.7451 19.4305V20.1986C17.7448 20.3465 17.7736 20.4931 17.8299 20.6298C17.8863 20.7666 17.9691 20.8908 18.0736 20.9956L22.7484 25.6696C22.8525 25.7743 22.9763 25.8574 23.1127 25.9141C23.2491 25.9708 23.3953 26 23.543 26C23.6907 26 23.837 25.9708 23.9734 25.9141C24.1097 25.8574 24.2336 25.7743 24.3377 25.6696L25.6649 24.3427C25.8778 24.1319 25.9984 23.8452 26 23.5456C26.0016 23.246 25.8842 22.958 25.6735 22.745ZM11.748 17.7387C10.5608 17.7395 9.4 17.3881 8.41256 16.7291C7.42511 16.0701 6.65535 15.1331 6.20067 14.0366C5.74599 12.9401 5.62683 11.7333 5.85826 10.5691C6.08968 9.40484 6.6613 8.33539 7.50079 7.49604C8.34028 6.65669 9.4099 6.08517 10.5743 5.85378C11.7388 5.62239 12.9457 5.74153 14.0424 6.19614C15.1391 6.65074 16.0763 7.42037 16.7354 8.40766C17.3945 9.39494 17.7459 10.5555 17.7451 11.7425C17.7449 13.3327 17.113 14.8577 15.9883 15.9822C14.8637 17.1066 13.3384 17.7384 11.748 17.7387Z" fill="#D30000"/>
</svg>
