<svg width="42" height="42" viewBox="0 0 42 42" fill="none" xmlns="http://www.w3.org/2000/svg">
<path fill-rule="evenodd" clip-rule="evenodd" d="M17.7299 0C7.85758 1.71594 0.351074 10.3258 0.351074 20.6889C0.351074 32.2869 9.75309 41.6889 21.3511 41.6889C31.3188 41.6889 39.6646 34.7443 41.8138 25.4294L15.351 25.4268L17.7299 0Z" fill="#FF9393"/>
<circle cx="21.3511" cy="20.6875" r="18" fill="#D92129"/>
<path d="M27.8673 15.0179C27.7218 14.9427 27.5801 14.8602 27.4428 14.7709C27.0436 14.5069 26.6775 14.1959 26.3525 13.8446C25.5395 12.9142 25.2358 11.9704 25.1239 11.3096H25.1284C25.035 10.7611 25.0736 10.4062 25.0795 10.4062H21.3761V24.7264C21.3761 24.9187 21.3761 25.1087 21.368 25.2965C21.368 25.3199 21.3658 25.3414 21.3644 25.3666C21.3644 25.3769 21.3644 25.3877 21.3622 25.3985V25.4066C21.3231 25.9204 21.1584 26.4167 20.8826 26.8519C20.6067 27.2871 20.2281 27.6479 19.78 27.9024C19.3131 28.1681 18.785 28.3074 18.2477 28.3067C16.5223 28.3067 15.1239 26.8998 15.1239 25.1622C15.1239 23.4246 16.5223 22.0177 18.2477 22.0177C18.5744 22.0174 18.899 22.0688 19.2095 22.1699L19.214 18.3992C18.2713 18.2774 17.3135 18.3523 16.4012 18.6192C15.4888 18.8861 14.6417 19.3392 13.9132 19.9499C13.2749 20.5045 12.7383 21.1663 12.3275 21.9054C12.1712 22.1749 11.5813 23.2579 11.5099 25.0157C11.465 26.0135 11.7646 27.0471 11.9075 27.4743V27.4833C11.9973 27.7349 12.3455 28.5933 12.9128 29.317C13.3703 29.8975 13.9108 30.4075 14.517 30.8304V30.8214L14.526 30.8304C16.3188 32.0487 18.3066 31.9688 18.3066 31.9688C18.6507 31.9548 19.8034 31.9688 21.1124 31.3484C22.5643 30.6606 23.3909 29.636 23.3909 29.636C23.9189 29.0237 24.3388 28.326 24.6325 27.5727C24.9676 26.6918 25.0795 25.6352 25.0795 25.2129V17.6158C25.1244 17.6427 25.7227 18.0385 25.7227 18.0385C25.7227 18.0385 26.5848 18.591 27.9298 18.9508C28.8947 19.2069 30.1947 19.2608 30.1947 19.2608V15.5844C29.7392 15.6338 28.8143 15.4901 27.8673 15.0179Z" fill="white"/>
</svg>
