<svg width="42" height="42" viewBox="0 0 42 42" fill="none" xmlns="http://www.w3.org/2000/svg">
<path fill-rule="evenodd" clip-rule="evenodd" d="M17.8044 0C7.93205 1.71594 0.425537 10.3258 0.425537 20.6889C0.425537 32.2869 9.82756 41.6889 21.4255 41.6889C31.3933 41.6889 39.7391 34.7443 41.8883 25.4294L15.4255 25.4268L17.8044 0Z" fill="#FF9393"/>
<circle cx="21.4255" cy="20.6875" r="18" fill="#D92129"/>
<path fill-rule="evenodd" clip-rule="evenodd" d="M32.0255 13.7653C31.2314 14.1181 30.3768 14.3556 29.4805 14.4629C30.3956 13.9143 31.0982 13.046 31.4287 12.0115C30.5734 12.5198 29.6238 12.8877 28.6151 13.0871C27.8066 12.226 26.654 11.6875 25.3804 11.6875C22.9333 11.6875 20.9491 13.6717 20.9491 16.1188C20.9491 16.4658 20.9887 16.8042 21.0643 17.1289C17.381 16.9446 14.116 15.18 11.9302 12.4989C11.5487 13.1533 11.3305 13.9143 11.3305 14.7264C11.3305 16.2635 12.1117 17.6199 13.3017 18.4147C12.5746 18.3917 11.8921 18.1923 11.2938 17.8604V17.9158C11.2938 20.0634 12.8223 21.8539 14.8482 22.2622C14.4767 22.3629 14.0851 22.4177 13.6812 22.4177C13.3953 22.4177 13.1174 22.3896 12.8467 22.3377C13.4105 24.098 15.0476 25.3796 16.9865 25.4155C15.4702 26.6035 13.5595 27.3126 11.4831 27.3126C11.1246 27.3126 10.7718 27.2917 10.4255 27.25C12.3867 28.507 14.7157 29.2414 17.2183 29.2414C25.3689 29.2414 29.8261 22.4889 29.8261 16.6336C29.8261 16.4413 29.8225 16.2498 29.8131 16.0605C30.6799 15.4341 31.4316 14.6537 32.0255 13.7653Z" fill="white"/>
</svg>
