<svg width="43" height="42" viewBox="0 0 43 42" fill="none" xmlns="http://www.w3.org/2000/svg">
<path fill-rule="evenodd" clip-rule="evenodd" d="M18.267 0C8.39469 1.71594 0.888184 10.3258 0.888184 20.6889C0.888184 32.2869 10.2902 41.6889 21.8882 41.6889C31.8559 41.6889 40.2017 34.7443 42.3509 25.4294L15.8882 25.4268L18.267 0Z" fill="#FF9393"/>
<circle cx="21.8882" cy="20.6875" r="18" fill="#D92129"/>
<path fill-rule="evenodd" clip-rule="evenodd" d="M31.6887 13.9125C32.0303 14.2672 32.2765 14.7087 32.4027 15.193C33.1293 18.2304 32.9614 23.0274 32.4168 26.182C32.2906 26.6663 32.0444 27.1078 31.7028 27.4625C31.3612 27.8173 30.936 28.0729 30.4697 28.204C28.7624 28.6875 21.8912 28.6875 21.8912 28.6875C21.8912 28.6875 15.0199 28.6875 13.3126 28.204C12.8463 28.0729 12.4211 27.8173 12.0795 27.4625C11.7379 27.1078 11.4917 26.6663 11.3655 26.182C10.6347 23.1578 10.835 18.3578 11.3514 15.2076C11.4776 14.7234 11.7238 14.2819 12.0654 13.9271C12.407 13.5723 12.8322 13.3167 13.2985 13.1857C15.0058 12.7021 21.8771 12.6875 21.8771 12.6875C21.8771 12.6875 28.7483 12.6875 30.4556 13.171C30.9219 13.3021 31.3471 13.5577 31.6887 13.9125ZM25.3903 20.6875L19.6901 24.1161V17.2589L25.3903 20.6875Z" fill="white"/>
</svg>
